<?xml version="1.0" encoding="UTF-8"?>
<svg width="130px" height="130px" viewBox="0 0 130 130" version="1.1" xmlns="http://www.w3.org/2000/svg" xmlns:xlink="http://www.w3.org/1999/xlink">
    <!-- Generator: Sketch 53.2 (72643) - https://sketchapp.com -->
    <title>rainbowcoin</title>
    <desc>Created with Sketch.</desc>
    <defs>
        <radialGradient cx="50%" cy="0%" fx="50%" fy="0%" r="100%" id="radialGradient-1">
            <stop stop-color="#AEA1EA" offset="0%"></stop>
            <stop stop-color="#36AAEA" offset="20.0168919%"></stop>
            <stop stop-color="#91EAF9" offset="43.6972128%"></stop>
            <stop stop-color="#4EDD81" offset="64.025549%"></stop>
            <stop stop-color="#FFD150" offset="82.8230574%"></stop>
            <stop stop-color="#FF0000" offset="100%"></stop>
        </radialGradient>
    </defs>
    <g id="rainbowcoin" stroke="none" stroke-width="1" fill="none" fill-rule="evenodd">
        <g id="Weather_Icons_1B-42">
            <circle id="Oval" stroke="url(#radialGradient-1)" stroke-width="7" cx="65.5" cy="65.5" r="56.5"></circle>
            <g id="Lines" transform="translate(29.000000, 37.000000)" stroke-width="2">
                <path d="M57.9235,32.1906667 C57.9235,20.6184602 48.6261332,11.2373333 37.15725,11.2373333 C25.6883668,11.2373333 16.391,20.6184602 16.391,32.1906667" id="Path" stroke="#4EDD81"></path>
                <path d="M53.539,32.2 C53.5389998,23.0711014 46.2046406,15.670667 37.15725,15.670667 C28.1098594,15.670667 20.7755002,23.0711014 20.7755,32.2" id="Path" stroke="#36AAEA"></path>
                <path d="M62.3265,32.2 C61.8080234,18.5629969 50.7009355,7.77753423 37.17575,7.77753423 C23.6505645,7.77753423 12.5434766,18.5629969 12.025,32.2" id="Path" stroke="#FFD150"></path>
                <path d="M49.08975,32.144 C48.909885,25.6275604 43.6226363,20.4391888 37.161875,20.4391888 C30.7011137,20.4391888 25.413865,25.6275604 25.234,32.144" id="Path" stroke="#AEA1EA"></path>
                <path d="M66.7295,32.1906667 C67.2757491,21.1775987 61.7635878,10.7568323 52.391708,5.08500438 C43.0198281,-0.586823584 31.3131719,-0.586823584 21.941292,5.08500438 C12.5694122,10.7568323 7.05725091,21.1775987 7.6035,32.1906667" id="Path" stroke="#F23B3B"></path>
                <path d="M73.91675,32.172 L0.24975,32.172" id="Path" stroke="#91EAF9" stroke-linecap="round" stroke-linejoin="round"></path>
                <path d="M32.116,43.8386667 L14.0415,43.8386667" id="Path" stroke="#91EAF9" stroke-linecap="round" stroke-linejoin="round"></path>
                <path d="M60.09725,43.8386667 L52.23475,43.8386667" id="Path" stroke="#91EAF9" stroke-linecap="round" stroke-linejoin="round"></path>
                <path d="M28.9895,55.5053333 L21.127,55.5053333" id="Path" stroke="#91EAF9" stroke-linecap="round" stroke-linejoin="round"></path>
                <path d="M53.04875,55.5053333 L40.9035,55.5053333" id="Path" stroke="#91EAF9" stroke-linecap="round" stroke-linejoin="round"></path>
            </g>
        </g>
    </g>
</svg>