<?xml version="1.0" encoding="UTF-8"?>
<svg width="459px" height="185px" viewBox="0 0 459 185" version="1.1" xmlns="http://www.w3.org/2000/svg" xmlns:xlink="http://www.w3.org/1999/xlink">
    <!-- Generator: Sketch 53.2 (72643) - https://sketchapp.com -->
    <title>Group 2</title>
    <desc>Created with Sketch.</desc>
    <defs>
        <linearGradient x1="98.6771763%" y1="48.9895582%" x2="0.986607143%" y2="48.9895582%" id="linearGradient-1">
            <stop stop-color="#0BA1CA" offset="0%"></stop>
            <stop stop-color="#489DDF" offset="100%"></stop>
        </linearGradient>
        <linearGradient x1="50%" y1="0%" x2="50%" y2="100%" id="linearGradient-2">
            <stop stop-color="#F5515F" offset="0%"></stop>
            <stop stop-color="#9F041B" offset="100%"></stop>
        </linearGradient>
        <linearGradient x1="50%" y1="0%" x2="50%" y2="100%" id="linearGradient-3">
            <stop stop-color="#B4EC51" offset="0%"></stop>
            <stop stop-color="#429321" offset="100%"></stop>
        </linearGradient>
    </defs>
    <g id="Page-1" stroke="none" stroke-width="1" fill="none" fill-rule="evenodd">
        <g id="Group-2" transform="translate(-64.976196, -104.635960)">
            <g id="rainbowcoin-single" transform="translate(401.864584, 211.474095) rotate(-15.000000) translate(-401.864584, -211.474095) translate(261.364584, 63.974095)">
                <g id="Group" transform="translate(0.804281, 0.957187)">
                    <g id="Colors" transform="translate(139.074563, 170.420954) rotate(-7.000000) translate(-139.074563, -170.420954) translate(28.710649, 98.063156)">
                        <polygon id="20" fill="#673AB7" transform="translate(210.578700, 115.338358) rotate(33.000000) translate(-210.578700, -115.338358) " points="206.883801 115.211885 212.584692 103.683022 214.273599 116.287427 210.747686 126.993693"></polygon>
                        <polygon id="19" fill="#2196F3" transform="translate(196.914742, 124.027638) rotate(33.000000) translate(-196.914742, -124.027638) " points="190.590487 123.330259 200.307556 109.924333 203.238998 123.929938 193.883392 138.130943"></polygon>
                        <polygon id="18" fill="#00BCD4" transform="translate(180.352561, 129.307353) rotate(33.000000) translate(-180.352561, -129.307353) " points="174.018014 125.127328 185.223363 115.76029 186.687109 132.886912 175.048217 142.854416"></polygon>
                        <polygon id="17" fill="#4CAF50" transform="translate(164.964431, 130.507315) rotate(33.000000) translate(-164.964431, -130.507315) " points="158.895865 125.6726 171.032996 119.134887 170.936623 136.216498 159.7044 141.879742"></polygon>
                        <polygon id="16" fill="#8BC34A" transform="translate(151.192665, 130.540406) rotate(24.000000) translate(-151.192665, -130.540406) " points="145.095566 124.567271 157.860543 120.120132 156.600502 136.301104 144.524787 140.960679"></polygon>
                        <polygon id="15" fill="#CDDC39" transform="translate(137.872731, 129.156575) rotate(23.000000) translate(-137.872731, -129.156575) " points="132.136323 122.168653 143.986147 120.431422 143.825779 135.528201 131.759315 137.881728"></polygon>
                        <polygon id="14" fill="#FFEB3B" transform="translate(124.738096, 125.710488) rotate(23.000000) translate(-124.738096, -125.710488) " points="119.09543 119.064221 130.876458 117.706295 130.08291 133.062511 118.599735 133.714682"></polygon>
                        <polygon id="13" fill="#FF9800" transform="translate(112.113253, 122.149213) rotate(32.000000) translate(-112.113253, -122.149213) " points="105.993382 114.92546 118.084024 112.767598 118.233125 128.761938 106.46467 131.530827"></polygon>
                        <polygon id="12" fill="#FF5722" transform="translate(99.744573, 116.937984) rotate(32.000000) translate(-99.744573, -116.937984) " points="92.5938063 110.185135 106.817087 108.443232 106.89534 124.350644 94.078486 125.432735"></polygon>
                        <polygon id="11" fill="#F44336" transform="translate(88.210001, 113.000049) rotate(32.000000) translate(-88.210001, -113.000049) " points="81.6130828 105.149454 93.3140478 104.143474 94.8289576 119.831955 81.5910445 121.856624"></polygon>
                        <polygon id="10" fill="#FF5722" transform="translate(76.839652, 107.135049) rotate(32.000000) translate(-76.839652, -107.135049) " points="70.4014826 99.1082466 82.5056021 98.7671951 83.2778221 114.420812 70.460968 115.502903"></polygon>
                        <polygon id="9" fill="#FF9800" transform="translate(66.077044, 99.974380) rotate(32.000000) translate(-66.077044, -99.974380) " points="59.8667078 91.9359908 72.2895823 91.9346247 72.2873803 108.012769 59.8645058 108.014135"></polygon>
                        <polygon id="8" fill="#FFEB3B" transform="translate(55.506535, 93.587423) rotate(32.000000) translate(-55.506535, -93.587423) " points="49.1785798 85.3953941 60.9682933 85.3939473 61.8344892 101.780898 51.0567331 100.53485"></polygon>
                        <polygon id="7" fill="#CDDC39" transform="translate(45.463336, 85.425668) rotate(32.000000) translate(-45.463336, -85.425668) " points="39.1359698 77.0301075 50.9256832 77.0286607 51.7907023 93.8226762 39.7251363 92.1868073"></polygon>
                        <polygon id="6" fill="#8BC34A" transform="translate(35.980255, 76.303733) rotate(37.000000) translate(-35.980255, -76.303733) " points="28.9358122 67.8602013 41.6598945 69.5878377 43.0246974 84.7472651 30.2369025 83.2368474"></polygon>
                        <polygon id="5" fill="#4CAF50" transform="translate(27.087879, 66.363392) scale(-1, 1) translate(-27.087879, -66.363392) " points="34.4818516 68.4431575 27.4745035 77.1691593 19.6939072 63.9424013 28.3398209 55.5576249"></polygon>
                        <polygon id="4" fill="#00BCD4" transform="translate(18.229759, 54.572637) scale(-1, 1) translate(-18.229759, -54.572637) " points="25.6237312 57.3855069 17.6384153 66.7741745 10.8357867 52.8847507 17.3544836 42.3711001"></polygon>
                        <polygon id="3" fill="#2196F3" transform="translate(10.945330, 41.675382) scale(-1, 1) translate(-10.945330, -41.675382) " points="18.2742284 41.9867268 12.0113056 54.7609177 3.61643179 40.4053605 10.567023 28.5898466"></polygon>
                        <polygon id="2" fill="#7B1FA2" transform="translate(5.727745, 24.084256) scale(-1, 1) translate(-5.727745, -24.084256) " points="11.1687424 19.7659713 7.99902649 38.3939694 0.286746633 27.3019879 4.77699224 9.77454335"></polygon>
                        <polygon id="1" fill="#4A148C" transform="translate(4.867361, 6.751804) scale(-1, 1) translate(-4.867361, -6.751804) " points="8.03799436 9.19250249 7.58655494 13.5036089 1.69672679 6.07227836 2.2281274 -2.75514228e-12"></polygon>
                    </g>
                    <g id="Lines" transform="translate(134.689015, 171.604980) rotate(-7.000000) translate(-134.689015, -171.604980) translate(25.421431, 104.363390)">
                        <polygon id="Fill-121" fill="#1976D2" transform="translate(208.589043, 114.502228) rotate(147.000000) translate(-208.589043, -114.502228) " points="200.207644 117.443778 213.233992 109.273578 216.970441 111.088017 201.483833 119.730878"></polygon>
                        <polygon id="Fill-122" fill="#0288D1" transform="translate(191.892324, 121.619550) rotate(147.000000) translate(-191.892324, -121.619550) " points="183.976608 124.523411 197.577982 116.452161 199.808041 118.323402 185.296022 126.786939"></polygon>
                        <polygon id="Fill-123" fill="#0097A7" transform="translate(176.302599, 124.775515) rotate(147.000000) translate(-176.302599, -124.775515) " points="168.47266 127.669888 182.849801 119.59666 184.132539 121.881141 169.755398 129.954369"></polygon>
                        <polygon id="Fill-124" fill="#2E7D32" transform="translate(161.736636, 124.966122) rotate(147.000000) translate(-161.736636, -124.966122) " points="153.797997 128.081186 168.35586 119.587529 169.675275 121.851057 155.118721 130.344714"></polygon>
                        <polygon id="Fill-125" fill="#558B2F" transform="translate(147.922813, 123.908673) rotate(147.000000) translate(-147.922813, -123.908673) " points="140.085691 126.985765 154.433971 118.571981 155.759935 120.83289 141.411655 129.245365"></polygon>
                        <polygon id="Fill-126" fill="#9E9D24" transform="translate(134.823013, 121.675546) rotate(147.000000) translate(-134.823013, -121.675546) " points="126.972126 124.671428 141.368893 116.406969 142.673899 118.679664 128.277132 126.944123"></polygon>
                        <polygon id="Fill-127" fill="#FF7043" transform="translate(122.069769, 118.440503) rotate(147.000000) translate(-122.069769, -118.440503) " points="114.280458 121.494679 128.530496 113.128036 129.85908 115.387636 115.609042 123.75297"></polygon>
                        <polygon id="Fill-128" fill="#D84315" transform="translate(109.774530, 114.302969) rotate(147.000000) translate(-109.774530, -114.302969) " points="101.958382 117.490744 116.237208 108.872619 117.590679 111.115194 103.311853 119.733319"></polygon>
                        <polygon id="Fill-129" fill="#B71C1C" transform="translate(98.028290, 109.552117) rotate(147.000000) translate(-98.028290, -109.552117) " points="90.1138754 112.589906 104.637698 104.242944 105.942704 106.514329 91.4188814 114.861291"></polygon>
                        <polygon id="Fill-130" fill="#B71C1C" transform="translate(86.455953, 104.150373) rotate(147.000000) translate(-86.455953, -104.150373) " points="78.6384685 107.129232 92.9684315 98.8988195 94.2734374 101.170205 79.9434747 109.401927"></polygon>
                        <polygon id="Fill-131" fill="#D84315" transform="translate(75.181379, 97.936118) rotate(147.000000) translate(-75.181379, -97.936118) " points="67.4339909 101.021735 81.5870849 92.5987578 82.9287672 94.8491908 68.7743634 103.273478"></polygon>
                        <polygon id="Fill-132" fill="#FF7043" transform="translate(64.345055, 91.041458) rotate(147.000000) translate(-64.345055, -91.041458) " points="56.6133858 94.1192189 70.7363526 85.7119553 72.0767251 87.9636979 57.9537583 96.3709615"></polygon>
                        <polygon id="Fill-133" fill="#9E9D24" transform="translate(54.007555, 83.611344) rotate(147.000000) translate(-54.007555, -83.611344) " points="46.3505222 86.4422135 60.3726801 78.5012322 61.6645874 80.7804749 47.6424296 88.7214562"></polygon>
                        <polygon id="Fill-134" fill="#558B2F" transform="translate(44.032137, 75.021658) rotate(147.000000) translate(-44.032137, -75.021658) " points="36.3266437 77.9160469 50.4378637 69.8519539 51.7376301 72.1259583 37.6264103 80.1913611"></polygon>
                        <polygon id="Fill-135" fill="#2E7D32" transform="translate(34.494306, 65.565380) rotate(147.000000) translate(-34.494306, -65.565380) " points="26.8235275 68.4695978 40.857458 60.392397 42.1650836 62.6611631 28.1311531 70.7383639"></polygon>
                        <polygon id="Fill-136" fill="#0097A7" transform="translate(25.603306, 54.855239) rotate(147.000000) translate(-25.603306, -54.855239) " points="17.9220524 57.7902353 31.9716951 49.6540948 33.2845602 51.9202419 19.2349175 60.0563825"></polygon>
                        <polygon id="Fill-137" fill="#0288D1" transform="translate(17.611273, 42.910252) rotate(147.000000) translate(-17.611273, -42.910252) " points="10.0766951 45.525017 23.8919302 37.9952924 25.1458513 40.2954874 11.3306162 47.825212"></polygon>
                        <polygon id="Fill-138" fill="#1976D2" transform="translate(10.924903, 28.064799) rotate(147.000000) translate(-10.924903, -28.064799) " points="3.3785255 30.5983538 17.2396279 23.2179541 18.4712812 25.5312445 4.6101788 32.9116442"></polygon>
                        <polygon id="Fill-139" fill="#6A1B9A" transform="translate(7.355406, 6.762250) rotate(147.000000) translate(-7.355406, -6.762250) " points="2.16116605 8.14940982 12.9503759 2.47460735 12.343258 5.49489647 1.76043609 11.0498933"></polygon>
                    </g>
                    <path d="M187.414906,258.783054 L194.493398,254.385533 C210.65637,243.598401 218.53772,220.814469 216.07511,191.902937 C211.307333,135.937274 169.957801,73.2366379 123.898148,52.1338607 C111.762294,46.5731886 100.359134,44.3435857 89.9938865,45.5027268 C84.4464555,46.1241637 72.7908134,51.3474355 67.4114015,54.5663448 L56.573999,60.5615422 L52.3978361,62.2061885 L62.6040798,54.4457975 C65.5417305,52.6878621 68.5579905,50.5184415 73.6607914,48.0941272 C78.4641883,45.8120583 85.3582945,43.2285909 88.2298319,42.9069637 C99.0653333,41.691562 112.412978,43.9902348 124.988992,49.7513744 C171.814996,71.2066067 213.845816,134.87532 218.684443,191.680612 C221.231019,221.571929 212.929302,245.2321 195.908409,256.591526 L180.531214,266.075455 L187.414906,258.783054 Z" id="Fill-106" fill="#414141" transform="translate(135.767064, 154.333438) rotate(140.000000) translate(-135.767064, -154.333438) "></path>
                    <path d="M107.459567,37.2209709 C98.7975455,37.2198024 90.957052,39.5464887 84.3642711,44.1985868 C69.4716388,54.7076791 62.2493232,76.2639635 64.5483694,103.340861 C69.0840551,156.755819 108.419472,216.596144 152.234478,236.735415 C171.647025,245.660218 189.495681,245.522611 202.495584,236.353404 C217.388216,225.844312 224.610532,204.289277 222.311486,177.21363 C217.774554,123.797422 178.436645,63.9558458 134.621639,43.8165757 C125.056812,39.4198249 115.871111,37.2221056 107.459567,37.2209709 Z" id="Path" fill="#00FF00" transform="translate(143.429927, 140.276016) rotate(140.000000) translate(-143.429927, -140.276016) "></path>
                    <path d="M153.416479,238.02356 L153.416861,238.023735 C163.01545,242.422238 172.209839,244.631688 180.577017,244.632813 C189.061841,244.633954 196.591691,242.367571 202.896214,237.932232 C206.368672,235.490047 209.439485,232.40001 212.070693,228.698945 C220.362173,217.036123 224.059339,199.634741 222.302036,179.018595 C217.640278,124.303287 176.878234,62.5568139 132.085552,42.0333356 C112.598641,33.1042344 95.1505774,33.3063591 82.6086628,42.1273869 C68.1529521,52.2941079 60.8698755,73.6571139 63.2028411,101.042333 C67.8646422,155.75815 108.624432,217.501625 153.416479,238.02356 Z" id="BKG-&amp;-Border" stroke="#414141" stroke-width="12" fill="url(#linearGradient-1)" transform="translate(142.752622, 140.028969) rotate(140.000000) translate(-142.752622, -140.028969) "></path>
                </g>
            </g>
            <g id="rainbowcoin-single" transform="translate(186.500000, 212.027805) rotate(-22.000000) translate(-186.500000, -212.027805) translate(46.000000, 64.527805)">
                <g id="Group" transform="translate(0.804281, 0.957187)">
                    <g id="Colors" transform="translate(139.074563, 170.420954) rotate(-7.000000) translate(-139.074563, -170.420954) translate(28.710649, 98.063156)">
                        <polygon id="20" fill="#673AB7" transform="translate(210.578700, 115.338358) rotate(33.000000) translate(-210.578700, -115.338358) " points="206.883801 115.211885 212.584692 103.683022 214.273599 116.287427 210.747686 126.993693"></polygon>
                        <polygon id="19" fill="#2196F3" transform="translate(196.914742, 124.027638) rotate(33.000000) translate(-196.914742, -124.027638) " points="190.590487 123.330259 200.307556 109.924333 203.238998 123.929938 193.883392 138.130943"></polygon>
                        <polygon id="18" fill="#00BCD4" transform="translate(180.352561, 129.307353) rotate(33.000000) translate(-180.352561, -129.307353) " points="174.018014 125.127328 185.223363 115.76029 186.687109 132.886912 175.048217 142.854416"></polygon>
                        <polygon id="17" fill="#4CAF50" transform="translate(164.964431, 130.507315) rotate(33.000000) translate(-164.964431, -130.507315) " points="158.895865 125.6726 171.032996 119.134887 170.936623 136.216498 159.7044 141.879742"></polygon>
                        <polygon id="16" fill="#8BC34A" transform="translate(151.192665, 130.540406) rotate(24.000000) translate(-151.192665, -130.540406) " points="145.095566 124.567271 157.860543 120.120132 156.600502 136.301104 144.524787 140.960679"></polygon>
                        <polygon id="15" fill="#CDDC39" transform="translate(137.872731, 129.156575) rotate(23.000000) translate(-137.872731, -129.156575) " points="132.136323 122.168653 143.986147 120.431422 143.825779 135.528201 131.759315 137.881728"></polygon>
                        <polygon id="14" fill="#FFEB3B" transform="translate(124.738096, 125.710488) rotate(23.000000) translate(-124.738096, -125.710488) " points="119.09543 119.064221 130.876458 117.706295 130.08291 133.062511 118.599735 133.714682"></polygon>
                        <polygon id="13" fill="#FF9800" transform="translate(112.113253, 122.149213) rotate(32.000000) translate(-112.113253, -122.149213) " points="105.993382 114.92546 118.084024 112.767598 118.233125 128.761938 106.46467 131.530827"></polygon>
                        <polygon id="12" fill="#FF5722" transform="translate(99.744573, 116.937984) rotate(32.000000) translate(-99.744573, -116.937984) " points="92.5938063 110.185135 106.817087 108.443232 106.89534 124.350644 94.078486 125.432735"></polygon>
                        <polygon id="11" fill="#F44336" transform="translate(88.210001, 113.000049) rotate(32.000000) translate(-88.210001, -113.000049) " points="81.6130828 105.149454 93.3140478 104.143474 94.8289576 119.831955 81.5910445 121.856624"></polygon>
                        <polygon id="10" fill="#FF5722" transform="translate(76.839652, 107.135049) rotate(32.000000) translate(-76.839652, -107.135049) " points="70.4014826 99.1082466 82.5056021 98.7671951 83.2778221 114.420812 70.460968 115.502903"></polygon>
                        <polygon id="9" fill="#FF9800" transform="translate(66.077044, 99.974380) rotate(32.000000) translate(-66.077044, -99.974380) " points="59.8667078 91.9359908 72.2895823 91.9346247 72.2873803 108.012769 59.8645058 108.014135"></polygon>
                        <polygon id="8" fill="#FFEB3B" transform="translate(55.506535, 93.587423) rotate(32.000000) translate(-55.506535, -93.587423) " points="49.1785798 85.3953941 60.9682933 85.3939473 61.8344892 101.780898 51.0567331 100.53485"></polygon>
                        <polygon id="7" fill="#CDDC39" transform="translate(45.463336, 85.425668) rotate(32.000000) translate(-45.463336, -85.425668) " points="39.1359698 77.0301075 50.9256832 77.0286607 51.7907023 93.8226762 39.7251363 92.1868073"></polygon>
                        <polygon id="6" fill="#8BC34A" transform="translate(35.980255, 76.303733) rotate(37.000000) translate(-35.980255, -76.303733) " points="28.9358122 67.8602013 41.6598945 69.5878377 43.0246974 84.7472651 30.2369025 83.2368474"></polygon>
                        <polygon id="5" fill="#4CAF50" transform="translate(27.087879, 66.363392) scale(-1, 1) translate(-27.087879, -66.363392) " points="34.4818516 68.4431575 27.4745035 77.1691593 19.6939072 63.9424013 28.3398209 55.5576249"></polygon>
                        <polygon id="4" fill="#00BCD4" transform="translate(18.229759, 54.572637) scale(-1, 1) translate(-18.229759, -54.572637) " points="25.6237312 57.3855069 17.6384153 66.7741745 10.8357867 52.8847507 17.3544836 42.3711001"></polygon>
                        <polygon id="3" fill="#2196F3" transform="translate(10.945330, 41.675382) scale(-1, 1) translate(-10.945330, -41.675382) " points="18.2742284 41.9867268 12.0113056 54.7609177 3.61643179 40.4053605 10.567023 28.5898466"></polygon>
                        <polygon id="2" fill="#7B1FA2" transform="translate(5.727745, 24.084256) scale(-1, 1) translate(-5.727745, -24.084256) " points="11.1687424 19.7659713 7.99902649 38.3939694 0.286746633 27.3019879 4.77699224 9.77454335"></polygon>
                        <polygon id="1" fill="#4A148C" transform="translate(4.867361, 6.751804) scale(-1, 1) translate(-4.867361, -6.751804) " points="8.03799436 9.19250249 7.58655494 13.5036089 1.69672679 6.07227836 2.2281274 -2.75514228e-12"></polygon>
                    </g>
                    <g id="Lines" transform="translate(134.689015, 171.604980) rotate(-7.000000) translate(-134.689015, -171.604980) translate(25.421431, 104.363390)">
                        <polygon id="Fill-121" fill="#1976D2" transform="translate(208.589043, 114.502228) rotate(147.000000) translate(-208.589043, -114.502228) " points="200.207644 117.443778 213.233992 109.273578 216.970441 111.088017 201.483833 119.730878"></polygon>
                        <polygon id="Fill-122" fill="#0288D1" transform="translate(191.892324, 121.619550) rotate(147.000000) translate(-191.892324, -121.619550) " points="183.976608 124.523411 197.577982 116.452161 199.808041 118.323402 185.296022 126.786939"></polygon>
                        <polygon id="Fill-123" fill="#0097A7" transform="translate(176.302599, 124.775515) rotate(147.000000) translate(-176.302599, -124.775515) " points="168.47266 127.669888 182.849801 119.59666 184.132539 121.881141 169.755398 129.954369"></polygon>
                        <polygon id="Fill-124" fill="#2E7D32" transform="translate(161.736636, 124.966122) rotate(147.000000) translate(-161.736636, -124.966122) " points="153.797997 128.081186 168.35586 119.587529 169.675275 121.851057 155.118721 130.344714"></polygon>
                        <polygon id="Fill-125" fill="#558B2F" transform="translate(147.922813, 123.908673) rotate(147.000000) translate(-147.922813, -123.908673) " points="140.085691 126.985765 154.433971 118.571981 155.759935 120.83289 141.411655 129.245365"></polygon>
                        <polygon id="Fill-126" fill="#9E9D24" transform="translate(134.823013, 121.675546) rotate(147.000000) translate(-134.823013, -121.675546) " points="126.972126 124.671428 141.368893 116.406969 142.673899 118.679664 128.277132 126.944123"></polygon>
                        <polygon id="Fill-127" fill="#FF7043" transform="translate(122.069769, 118.440503) rotate(147.000000) translate(-122.069769, -118.440503) " points="114.280458 121.494679 128.530496 113.128036 129.85908 115.387636 115.609042 123.75297"></polygon>
                        <polygon id="Fill-128" fill="#D84315" transform="translate(109.774530, 114.302969) rotate(147.000000) translate(-109.774530, -114.302969) " points="101.958382 117.490744 116.237208 108.872619 117.590679 111.115194 103.311853 119.733319"></polygon>
                        <polygon id="Fill-129" fill="#B71C1C" transform="translate(98.028290, 109.552117) rotate(147.000000) translate(-98.028290, -109.552117) " points="90.1138754 112.589906 104.637698 104.242944 105.942704 106.514329 91.4188814 114.861291"></polygon>
                        <polygon id="Fill-130" fill="#B71C1C" transform="translate(86.455953, 104.150373) rotate(147.000000) translate(-86.455953, -104.150373) " points="78.6384685 107.129232 92.9684315 98.8988195 94.2734374 101.170205 79.9434747 109.401927"></polygon>
                        <polygon id="Fill-131" fill="#D84315" transform="translate(75.181379, 97.936118) rotate(147.000000) translate(-75.181379, -97.936118) " points="67.4339909 101.021735 81.5870849 92.5987578 82.9287672 94.8491908 68.7743634 103.273478"></polygon>
                        <polygon id="Fill-132" fill="#FF7043" transform="translate(64.345055, 91.041458) rotate(147.000000) translate(-64.345055, -91.041458) " points="56.6133858 94.1192189 70.7363526 85.7119553 72.0767251 87.9636979 57.9537583 96.3709615"></polygon>
                        <polygon id="Fill-133" fill="#9E9D24" transform="translate(54.007555, 83.611344) rotate(147.000000) translate(-54.007555, -83.611344) " points="46.3505222 86.4422135 60.3726801 78.5012322 61.6645874 80.7804749 47.6424296 88.7214562"></polygon>
                        <polygon id="Fill-134" fill="#558B2F" transform="translate(44.032137, 75.021658) rotate(147.000000) translate(-44.032137, -75.021658) " points="36.3266437 77.9160469 50.4378637 69.8519539 51.7376301 72.1259583 37.6264103 80.1913611"></polygon>
                        <polygon id="Fill-135" fill="#2E7D32" transform="translate(34.494306, 65.565380) rotate(147.000000) translate(-34.494306, -65.565380) " points="26.8235275 68.4695978 40.857458 60.392397 42.1650836 62.6611631 28.1311531 70.7383639"></polygon>
                        <polygon id="Fill-136" fill="#0097A7" transform="translate(25.603306, 54.855239) rotate(147.000000) translate(-25.603306, -54.855239) " points="17.9220524 57.7902353 31.9716951 49.6540948 33.2845602 51.9202419 19.2349175 60.0563825"></polygon>
                        <polygon id="Fill-137" fill="#0288D1" transform="translate(17.611273, 42.910252) rotate(147.000000) translate(-17.611273, -42.910252) " points="10.0766951 45.525017 23.8919302 37.9952924 25.1458513 40.2954874 11.3306162 47.825212"></polygon>
                        <polygon id="Fill-138" fill="#1976D2" transform="translate(10.924903, 28.064799) rotate(147.000000) translate(-10.924903, -28.064799) " points="3.3785255 30.5983538 17.2396279 23.2179541 18.4712812 25.5312445 4.6101788 32.9116442"></polygon>
                        <polygon id="Fill-139" fill="#6A1B9A" transform="translate(7.355406, 6.762250) rotate(147.000000) translate(-7.355406, -6.762250) " points="2.16116605 8.14940982 12.9503759 2.47460735 12.343258 5.49489647 1.76043609 11.0498933"></polygon>
                    </g>
                    <path d="M187.414906,258.783054 L194.493398,254.385533 C210.65637,243.598401 218.53772,220.814469 216.07511,191.902937 C211.307333,135.937274 169.957801,73.2366379 123.898148,52.1338607 C111.762294,46.5731886 100.359134,44.3435857 89.9938865,45.5027268 C84.4464555,46.1241637 72.7908134,51.3474355 67.4114015,54.5663448 L56.573999,60.5615422 L52.3978361,62.2061885 L62.6040798,54.4457975 C65.5417305,52.6878621 68.5579905,50.5184415 73.6607914,48.0941272 C78.4641883,45.8120583 85.3582945,43.2285909 88.2298319,42.9069637 C99.0653333,41.691562 112.412978,43.9902348 124.988992,49.7513744 C171.814996,71.2066067 213.845816,134.87532 218.684443,191.680612 C221.231019,221.571929 212.929302,245.2321 195.908409,256.591526 L180.531214,266.075455 L187.414906,258.783054 Z" id="Fill-106" fill="#414141" transform="translate(135.767064, 154.333438) rotate(140.000000) translate(-135.767064, -154.333438) "></path>
                    <path d="M107.459567,37.2209709 C98.7975455,37.2198024 90.957052,39.5464887 84.3642711,44.1985868 C69.4716388,54.7076791 62.2493232,76.2639635 64.5483694,103.340861 C69.0840551,156.755819 108.419472,216.596144 152.234478,236.735415 C171.647025,245.660218 189.495681,245.522611 202.495584,236.353404 C217.388216,225.844312 224.610532,204.289277 222.311486,177.21363 C217.774554,123.797422 178.436645,63.9558458 134.621639,43.8165757 C125.056812,39.4198249 115.871111,37.2221056 107.459567,37.2209709 Z" id="Path" fill="#00FF00" transform="translate(143.429927, 140.276016) rotate(140.000000) translate(-143.429927, -140.276016) "></path>
                    <path d="M153.416479,238.02356 L153.416861,238.023735 C163.01545,242.422238 172.209839,244.631688 180.577017,244.632813 C189.061841,244.633954 196.591691,242.367571 202.896214,237.932232 C206.368672,235.490047 209.439485,232.40001 212.070693,228.698945 C220.362173,217.036123 224.059339,199.634741 222.302036,179.018595 C217.640278,124.303287 176.878234,62.5568139 132.085552,42.0333356 C112.598641,33.1042344 95.1505774,33.3063591 82.6086628,42.1273869 C68.1529521,52.2941079 60.8698755,73.6571139 63.2028411,101.042333 C67.8646422,155.75815 108.624432,217.501625 153.416479,238.02356 Z" id="BKG-&amp;-Border" stroke="#414141" stroke-width="12" fill="url(#linearGradient-2)" transform="translate(142.752622, 140.028969) rotate(140.000000) translate(-142.752622, -140.028969) "></path>
                </g>
            </g>
            <g id="rainbowcoin-single" transform="translate(291.728490, 183.000000) rotate(-17.000000) translate(-291.728490, -183.000000) translate(150.728490, 35.000000)">
                <g id="Group" transform="translate(0.804281, 0.957187)">
                    <g id="Colors" transform="translate(139.836044, 171.232687) rotate(-7.000000) translate(-139.836044, -171.232687) translate(29.472130, 98.874889)">
                        <polygon id="20" fill="#673AB7" transform="translate(210.578700, 115.338358) rotate(33.000000) translate(-210.578700, -115.338358) " points="206.883801 115.211885 212.584692 103.683022 214.273599 116.287427 210.747686 126.993693"></polygon>
                        <polygon id="19" fill="#2196F3" transform="translate(196.914742, 124.027638) rotate(33.000000) translate(-196.914742, -124.027638) " points="190.590487 123.330259 200.307556 109.924333 203.238998 123.929938 193.883392 138.130943"></polygon>
                        <polygon id="18" fill="#00BCD4" transform="translate(180.352561, 129.307353) rotate(33.000000) translate(-180.352561, -129.307353) " points="174.018014 125.127328 185.223363 115.76029 186.687109 132.886912 175.048217 142.854416"></polygon>
                        <polygon id="17" fill="#4CAF50" transform="translate(164.964431, 130.507315) rotate(33.000000) translate(-164.964431, -130.507315) " points="158.895865 125.6726 171.032996 119.134887 170.936623 136.216498 159.7044 141.879742"></polygon>
                        <polygon id="16" fill="#8BC34A" transform="translate(151.192665, 130.540406) rotate(24.000000) translate(-151.192665, -130.540406) " points="145.095566 124.567271 157.860543 120.120132 156.600502 136.301104 144.524787 140.960679"></polygon>
                        <polygon id="15" fill="#CDDC39" transform="translate(137.872731, 129.156575) rotate(23.000000) translate(-137.872731, -129.156575) " points="132.136323 122.168653 143.986147 120.431422 143.825779 135.528201 131.759315 137.881728"></polygon>
                        <polygon id="14" fill="#FFEB3B" transform="translate(124.738096, 125.710488) rotate(23.000000) translate(-124.738096, -125.710488) " points="119.09543 119.064221 130.876458 117.706295 130.08291 133.062511 118.599735 133.714682"></polygon>
                        <polygon id="13" fill="#FF9800" transform="translate(112.113253, 122.149213) rotate(32.000000) translate(-112.113253, -122.149213) " points="105.993382 114.92546 118.084024 112.767598 118.233125 128.761938 106.46467 131.530827"></polygon>
                        <polygon id="12" fill="#FF5722" transform="translate(99.744573, 116.937984) rotate(32.000000) translate(-99.744573, -116.937984) " points="92.5938063 110.185135 106.817087 108.443232 106.89534 124.350644 94.078486 125.432735"></polygon>
                        <polygon id="11" fill="#F44336" transform="translate(88.210001, 113.000049) rotate(32.000000) translate(-88.210001, -113.000049) " points="81.6130828 105.149454 93.3140478 104.143474 94.8289576 119.831955 81.5910445 121.856624"></polygon>
                        <polygon id="10" fill="#FF5722" transform="translate(76.839652, 107.135049) rotate(32.000000) translate(-76.839652, -107.135049) " points="70.4014826 99.1082466 82.5056021 98.7671951 83.2778221 114.420812 70.460968 115.502903"></polygon>
                        <polygon id="9" fill="#FF9800" transform="translate(66.077044, 99.974380) rotate(32.000000) translate(-66.077044, -99.974380) " points="59.8667078 91.9359908 72.2895823 91.9346247 72.2873803 108.012769 59.8645058 108.014135"></polygon>
                        <polygon id="8" fill="#FFEB3B" transform="translate(55.506535, 93.587423) rotate(32.000000) translate(-55.506535, -93.587423) " points="49.1785798 85.3953941 60.9682933 85.3939473 61.8344892 101.780898 51.0567331 100.53485"></polygon>
                        <polygon id="7" fill="#CDDC39" transform="translate(45.463336, 85.425668) rotate(32.000000) translate(-45.463336, -85.425668) " points="39.1359698 77.0301075 50.9256832 77.0286607 51.7907023 93.8226762 39.7251363 92.1868073"></polygon>
                        <polygon id="6" fill="#8BC34A" transform="translate(35.980255, 76.303733) rotate(37.000000) translate(-35.980255, -76.303733) " points="28.9358122 67.8602013 41.6598945 69.5878377 43.0246974 84.7472651 30.2369025 83.2368474"></polygon>
                        <polygon id="5" fill="#4CAF50" transform="translate(27.087879, 66.363392) scale(-1, 1) translate(-27.087879, -66.363392) " points="34.4818516 68.4431575 27.4745035 77.1691593 19.6939072 63.9424013 28.3398209 55.5576249"></polygon>
                        <polygon id="4" fill="#00BCD4" transform="translate(18.229759, 54.572637) scale(-1, 1) translate(-18.229759, -54.572637) " points="25.6237312 57.3855069 17.6384153 66.7741745 10.8357867 52.8847507 17.3544836 42.3711001"></polygon>
                        <polygon id="3" fill="#2196F3" transform="translate(10.945330, 41.675382) scale(-1, 1) translate(-10.945330, -41.675382) " points="18.2742284 41.9867268 12.0113056 54.7609177 3.61643179 40.4053605 10.567023 28.5898466"></polygon>
                        <polygon id="2" fill="#7B1FA2" transform="translate(5.727745, 24.084256) scale(-1, 1) translate(-5.727745, -24.084256) " points="11.1687424 19.7659713 7.99902649 38.3939694 0.286746633 27.3019879 4.77699224 9.77454335"></polygon>
                        <polygon id="1" fill="#4A148C" transform="translate(4.867361, 6.751804) scale(-1, 1) translate(-4.867361, -6.751804) " points="8.03799436 9.19250249 7.58655494 13.5036089 1.69672679 6.07227836 2.2281274 -2.75514228e-12"></polygon>
                    </g>
                    <g id="Lines" transform="translate(135.450496, 172.416713) rotate(-7.000000) translate(-135.450496, -172.416713) translate(26.182911, 105.175123)">
                        <polygon id="Fill-121" fill="#1976D2" transform="translate(208.589043, 114.502228) rotate(147.000000) translate(-208.589043, -114.502228) " points="200.207644 117.443778 213.233992 109.273578 216.970441 111.088017 201.483833 119.730878"></polygon>
                        <polygon id="Fill-122" fill="#0288D1" transform="translate(191.892324, 121.619550) rotate(147.000000) translate(-191.892324, -121.619550) " points="183.976608 124.523411 197.577982 116.452161 199.808041 118.323402 185.296022 126.786939"></polygon>
                        <polygon id="Fill-123" fill="#0097A7" transform="translate(176.302599, 124.775515) rotate(147.000000) translate(-176.302599, -124.775515) " points="168.47266 127.669888 182.849801 119.59666 184.132539 121.881141 169.755398 129.954369"></polygon>
                        <polygon id="Fill-124" fill="#2E7D32" transform="translate(161.736636, 124.966122) rotate(147.000000) translate(-161.736636, -124.966122) " points="153.797997 128.081186 168.35586 119.587529 169.675275 121.851057 155.118721 130.344714"></polygon>
                        <polygon id="Fill-125" fill="#558B2F" transform="translate(147.922813, 123.908673) rotate(147.000000) translate(-147.922813, -123.908673) " points="140.085691 126.985765 154.433971 118.571981 155.759935 120.83289 141.411655 129.245365"></polygon>
                        <polygon id="Fill-126" fill="#9E9D24" transform="translate(134.823013, 121.675546) rotate(147.000000) translate(-134.823013, -121.675546) " points="126.972126 124.671428 141.368893 116.406969 142.673899 118.679664 128.277132 126.944123"></polygon>
                        <polygon id="Fill-127" fill="#FF7043" transform="translate(122.069769, 118.440503) rotate(147.000000) translate(-122.069769, -118.440503) " points="114.280458 121.494679 128.530496 113.128036 129.85908 115.387636 115.609042 123.75297"></polygon>
                        <polygon id="Fill-128" fill="#D84315" transform="translate(109.774530, 114.302969) rotate(147.000000) translate(-109.774530, -114.302969) " points="101.958382 117.490744 116.237208 108.872619 117.590679 111.115194 103.311853 119.733319"></polygon>
                        <polygon id="Fill-129" fill="#B71C1C" transform="translate(98.028290, 109.552117) rotate(147.000000) translate(-98.028290, -109.552117) " points="90.1138754 112.589906 104.637698 104.242944 105.942704 106.514329 91.4188814 114.861291"></polygon>
                        <polygon id="Fill-130" fill="#B71C1C" transform="translate(86.455953, 104.150373) rotate(147.000000) translate(-86.455953, -104.150373) " points="78.6384685 107.129232 92.9684315 98.8988195 94.2734374 101.170205 79.9434747 109.401927"></polygon>
                        <polygon id="Fill-131" fill="#D84315" transform="translate(75.181379, 97.936118) rotate(147.000000) translate(-75.181379, -97.936118) " points="67.4339909 101.021735 81.5870849 92.5987578 82.9287672 94.8491908 68.7743634 103.273478"></polygon>
                        <polygon id="Fill-132" fill="#FF7043" transform="translate(64.345055, 91.041458) rotate(147.000000) translate(-64.345055, -91.041458) " points="56.6133858 94.1192189 70.7363526 85.7119553 72.0767251 87.9636979 57.9537583 96.3709615"></polygon>
                        <polygon id="Fill-133" fill="#9E9D24" transform="translate(54.007555, 83.611344) rotate(147.000000) translate(-54.007555, -83.611344) " points="46.3505222 86.4422135 60.3726801 78.5012322 61.6645874 80.7804749 47.6424296 88.7214562"></polygon>
                        <polygon id="Fill-134" fill="#558B2F" transform="translate(44.032137, 75.021658) rotate(147.000000) translate(-44.032137, -75.021658) " points="36.3266437 77.9160469 50.4378637 69.8519539 51.7376301 72.1259583 37.6264103 80.1913611"></polygon>
                        <polygon id="Fill-135" fill="#2E7D32" transform="translate(34.494306, 65.565380) rotate(147.000000) translate(-34.494306, -65.565380) " points="26.8235275 68.4695978 40.857458 60.392397 42.1650836 62.6611631 28.1311531 70.7383639"></polygon>
                        <polygon id="Fill-136" fill="#0097A7" transform="translate(25.603306, 54.855239) rotate(147.000000) translate(-25.603306, -54.855239) " points="17.9220524 57.7902353 31.9716951 49.6540948 33.2845602 51.9202419 19.2349175 60.0563825"></polygon>
                        <polygon id="Fill-137" fill="#0288D1" transform="translate(17.611273, 42.910252) rotate(147.000000) translate(-17.611273, -42.910252) " points="10.0766951 45.525017 23.8919302 37.9952924 25.1458513 40.2954874 11.3306162 47.825212"></polygon>
                        <polygon id="Fill-138" fill="#1976D2" transform="translate(10.924903, 28.064799) rotate(147.000000) translate(-10.924903, -28.064799) " points="3.3785255 30.5983538 17.2396279 23.2179541 18.4712812 25.5312445 4.6101788 32.9116442"></polygon>
                        <polygon id="Fill-139" fill="#6A1B9A" transform="translate(7.355406, 6.762250) rotate(147.000000) translate(-7.355406, -6.762250) " points="2.16116605 8.14940982 12.9503759 2.47460735 12.343258 5.49489647 1.76043609 11.0498933"></polygon>
                    </g>
                    <path d="M188.176387,259.594787 L195.254879,255.197267 C211.417851,244.410134 219.2992,221.626202 216.836591,192.71467 C212.068813,136.749007 170.719282,74.0483712 124.659629,52.945594 C112.523775,47.3849219 101.120615,45.155319 90.7553673,46.3144601 C85.2079363,46.935897 73.5522942,52.1591689 68.1728823,55.3780782 L57.3354798,61.3732755 L53.1593169,63.0179218 L63.3655606,55.2575309 C66.3032112,53.4995955 69.3194713,51.3301749 74.4222722,48.9058605 C79.2256691,46.6237916 86.1197753,44.0403243 88.9913127,43.718697 C99.8268141,42.5032953 113.174458,44.8019681 125.750473,50.5631077 C172.576477,72.01834 214.607297,135.687053 219.445924,192.492345 C221.992499,222.383663 213.690783,246.043833 196.66989,257.403259 L181.292695,266.887188 L188.176387,259.594787 Z" id="Fill-106" fill="#414141" transform="translate(136.528545, 155.145171) rotate(140.000000) translate(-136.528545, -155.145171) "></path>
                    <path d="M108.221048,38.0327042 C99.5590263,38.0315357 91.7185328,40.358222 85.1257519,45.0103201 C70.2331196,55.5194124 63.010804,77.0756968 65.3098502,104.152594 C69.8455358,157.567552 109.180952,217.407878 152.995958,237.547148 C172.408506,246.471951 190.257161,246.334344 203.257064,237.165137 C218.149697,226.656045 225.372012,205.101011 223.072966,178.025364 C218.536034,124.609155 179.198125,64.7675791 135.383119,44.628309 C125.818293,40.2315582 116.632592,38.0338389 108.221048,38.0327042 Z" id="Path" fill="#00FF00" transform="translate(144.191408, 141.087750) rotate(140.000000) translate(-144.191408, -141.087750) "></path>
                    <path d="M154.17796,238.835293 L154.178341,238.835468 C163.776931,243.233972 172.97132,245.443421 181.338498,245.444546 C189.823322,245.445687 197.353172,243.179304 203.657695,238.743965 C207.130153,236.301781 210.200966,233.211743 212.832174,229.510678 C221.123654,217.847857 224.82082,200.446474 223.063517,179.830329 C218.401759,125.11502 177.639715,63.3685472 132.847033,42.8450689 C113.360121,33.9159677 95.9120582,34.1180924 83.3701436,42.9391202 C68.9144329,53.1058413 61.6313563,74.4688472 63.9643219,101.854066 C68.626123,156.569883 109.385913,218.313358 154.17796,238.835293 Z" id="BKG-&amp;-Border" stroke="#414141" stroke-width="12" fill="url(#linearGradient-3)" transform="translate(143.514102, 140.840702) rotate(140.000000) translate(-143.514102, -140.840702) "></path>
                </g>
            </g>
        </g>
    </g>
</svg>