<?xml version="1.0" encoding="UTF-8"?>
<svg width="327px" height="327px" viewBox="0 0 327 327" version="1.1" xmlns="http://www.w3.org/2000/svg" xmlns:xlink="http://www.w3.org/1999/xlink">
    <!-- Generator: Sketch 53.2 (72643) - https://sketchapp.com -->
    <title>rainbowcoin-single</title>
    <desc>Created with Sketch.</desc>
    <g id="rainbowcoin-single" stroke="none" stroke-width="1" fill="none" fill-rule="evenodd">
        <g id="Group" transform="translate(-29.000000, -37.000000)">
            <g id="Colors" transform="translate(190.281934, 233.170092) rotate(-7.000000) translate(-190.281934, -233.170092) translate(39.281934, 134.170092)">
                <polygon id="20" fill="#673AB7" transform="translate(288.113953, 157.806037) rotate(33.000000) translate(-288.113953, -157.806037) " points="283.058589 157.632998 290.858554 141.859198 293.169317 159.104554 288.34516 173.752877"></polygon>
                <polygon id="19" fill="#2196F3" transform="translate(269.418915, 169.694718) rotate(33.000000) translate(-269.418915, -169.694718) " points="260.766063 168.740563 274.060966 150.398564 278.071768 169.561045 265.27142 188.990872"></polygon>
                <polygon id="18" fill="#00BCD4" transform="translate(246.758525, 176.918429) rotate(33.000000) translate(-246.758525, -176.918429) " points="238.091592 171.199315 253.422761 158.383326 255.425459 181.815985 239.501117 195.453532"></polygon>
                <polygon id="17" fill="#4CAF50" transform="translate(225.704472, 178.560217) rotate(33.000000) translate(-225.704472, -178.560217) " points="217.401456 171.945357 234.007489 163.000452 233.87563 186.371527 218.507694 194.119982"></polygon>
                <polygon id="16" fill="#8BC34A" transform="translate(206.861931, 178.605492) rotate(24.000000) translate(-206.861931, -178.605492) " points="198.519875 170.433044 215.984927 164.348465 214.260937 186.487285 197.738935 192.862519"></polygon>
                <polygon id="15" fill="#CDDC39" transform="translate(188.637586, 176.712134) rotate(23.000000) translate(-188.637586, -176.712134) " points="180.789028 167.151253 197.001967 164.774372 196.782552 185.429798 180.273205 188.649895"></polygon>
                <polygon id="14" fill="#FFEB3B" transform="translate(170.666767, 171.997195) rotate(23.000000) translate(-170.666767, -171.997195) " points="162.946467 162.903767 179.065279 161.045851 177.979547 182.056239 162.268256 182.94854"></polygon>
                <polygon id="13" fill="#FF9800" transform="translate(153.393447, 167.124655) rotate(32.000000) translate(-153.393447, -167.124655) " points="145.020234 157.24111 161.562661 154.288722 161.76666 176.172191 145.665051 179.960588"></polygon>
                <polygon id="12" fill="#FF5722" transform="translate(136.470609, 159.994647) rotate(32.000000) translate(-136.470609, -159.994647) " points="126.686923 150.755394 146.147228 148.372121 146.254294 170.136656 128.718263 171.617173"></polygon>
                <polygon id="11" fill="#F44336" transform="translate(120.688997, 154.606762) rotate(32.000000) translate(-120.688997, -154.606762) " points="111.663088 143.865571 127.672358 142.489189 129.745059 163.954181 111.632935 166.724335"></polygon>
                <polygon id="10" fill="#FF5722" transform="translate(105.132077, 146.582264) rotate(32.000000) translate(-105.132077, -146.582264) " points="96.3233674 135.599986 112.884234 135.133359 113.940786 156.550651 96.4047554 158.031169"></polygon>
                <polygon id="9" fill="#FF9800" transform="translate(90.406667, 136.785030) rotate(32.000000) translate(-90.406667, -136.785030) " points="81.9096798 125.7869 98.906667 125.78503 98.9036542 147.783161 81.906667 147.78503"></polygon>
                <polygon id="8" fill="#FFEB3B" transform="translate(75.944087, 128.046390) rotate(32.000000) translate(-75.944087, -128.046390) " points="67.2861741 116.83805 83.41687 116.83607 84.6019999 139.25671 69.8558649 137.551866"></polygon>
                <polygon id="7" fill="#CDDC39" transform="translate(62.202974, 116.879471) rotate(32.000000) translate(-62.202974, -116.879471) " points="53.5458666 105.392658 69.6765624 105.390678 70.8600822 128.368264 54.3519648 126.130067"></polygon>
                <polygon id="6" fill="#8BC34A" transform="translate(49.228215, 104.398832) rotate(37.000000) translate(-49.228215, -104.398832) " points="39.5900025 92.8463842 56.9991025 95.2101378 58.866427 115.951279 41.3701552 113.884724"></polygon>
                <polygon id="5" fill="#4CAF50" transform="translate(37.061659, 90.798449) scale(-1, 1) translate(-37.061659, -90.798449) " points="47.1780983 93.6439854 37.5906387 105.582908 26.9452203 87.486047 38.7745666 76.0139889"></polygon>
                <polygon id="4" fill="#00BCD4" transform="translate(24.941971, 74.666328) scale(-1, 1) translate(-24.941971, -74.666328) " points="35.0584104 78.5148986 24.1328946 91.3604814 14.8255325 72.3569602 23.744419 57.9721747"></polygon>
                <polygon id="3" fill="#2196F3" transform="translate(14.975410, 57.020293) scale(-1, 1) translate(-14.975410, -57.020293) " points="25.0028146 57.4462748 16.4338784 74.9239334 4.94800499 55.2826481 14.4578097 39.116652"></polygon>
                <polygon id="2" fill="#7B1FA2" transform="translate(7.836705, 32.952100) scale(-1, 1) translate(-7.836705, -32.952100) " points="15.2810827 27.0438185 10.9442747 52.5306611 0.392326984 37.3546027 6.53588478 13.3735384"></polygon>
                <polygon id="1" fill="#4A148C" transform="translate(6.659527, 9.237824) scale(-1, 1) translate(-6.659527, -9.237824) " points="10.9975906 12.5771896 10.3799308 18.475649 2.32146301 8.30809634 3.04852578 -2.77280651e-12"></polygon>
            </g>
            <g id="Lines" transform="translate(184.281623, 234.790077) rotate(-7.000000) translate(-184.281623, -234.790077) translate(34.781623, 142.790077)">
                <polygon id="Fill-121" fill="#1976D2" transform="translate(285.391703, 156.662044) rotate(147.000000) translate(-285.391703, -156.662044) " points="273.924266 160.686676 291.746926 149.508201 296.859139 151.990718 275.670349 163.815887"></polygon>
                <polygon id="Fill-122" fill="#0288D1" transform="translate(262.547239, 166.399970) rotate(147.000000) translate(-262.547239, -166.399970) " points="251.716949 170.373035 270.326361 159.329944 273.377529 161.890178 253.522173 173.469996"></polygon>
                <polygon id="Fill-123" fill="#0097A7" transform="translate(241.217364, 170.717964) rotate(147.000000) translate(-241.217364, -170.717964) " points="230.504434 174.678048 250.175251 163.63225 251.930294 166.757879 232.259478 177.803677"></polygon>
                <polygon id="Fill-124" fill="#2E7D32" transform="translate(221.288201, 170.978752) rotate(147.000000) translate(-221.288201, -170.978752) " points="210.426548 175.240786 230.344629 163.619757 232.149853 166.716718 212.233564 178.337747"></polygon>
                <polygon id="Fill-125" fill="#558B2F" transform="translate(202.388116, 169.531950) rotate(147.000000) translate(-202.388116, -169.531950) " points="191.66536 173.742031 211.296688 162.230283 213.110873 165.323662 193.479545 176.833617"></polygon>
                <polygon id="Fill-126" fill="#9E9D24" transform="translate(184.464959, 166.476584) rotate(147.000000) translate(-184.464959, -166.476584) " points="173.72337 170.575552 193.421038 159.268112 195.206548 162.377616 175.50888 173.685056"></polygon>
                <polygon id="Fill-127" fill="#FF7043" transform="translate(167.015960, 162.050395) rotate(147.000000) translate(-167.015960, -162.050395) " points="156.358618 166.229122 175.855533 154.781874 177.673302 157.87346 158.176388 169.318917"></polygon>
                <polygon id="Fill-128" fill="#D84315" transform="translate(150.193604, 156.389418) rotate(147.000000) translate(-150.193604, -156.389418) " points="139.499544 160.750934 159.035845 148.959608 160.887665 152.027902 141.351364 163.819227"></polygon>
                <polygon id="Fill-129" fill="#B71C1C" transform="translate(134.122388, 149.889299) rotate(147.000000) translate(-134.122388, -149.889299) " points="123.29388 154.045603 143.165386 142.625283 144.950897 145.732994 125.07939 157.153315"></polygon>
                <polygon id="Fill-130" fill="#B71C1C" transform="translate(118.289107, 142.498628) rotate(147.000000) translate(-118.289107, -142.498628) " points="107.593218 146.574305 127.199486 135.313448 128.984996 138.421159 109.378729 149.683808"></polygon>
                <polygon id="Fill-131" fill="#D84315" transform="translate(102.863226, 133.996279) rotate(147.000000) translate(-102.863226, -133.996279) " points="92.2632428 138.218023 111.627518 126.693698 113.463209 129.772742 94.0971416 141.298859"></polygon>
                <polygon id="Fill-132" fill="#FF7043" transform="translate(88.036959, 124.563000) rotate(147.000000) translate(-88.036959, -124.563000) " points="77.4584818 128.773994 96.7815368 117.271169 98.6154356 120.352005 79.2923806 131.85483"></polygon>
                <polygon id="Fill-133" fill="#9E9D24" transform="translate(73.893182, 114.397111) rotate(147.000000) translate(-73.893182, -114.397111) " points="63.4168233 118.270309 82.6019514 107.405452 84.3695401 110.523913 65.184412 121.388771"></polygon>
                <polygon id="Fill-134" fill="#558B2F" transform="translate(60.244807, 102.644695) rotate(147.000000) translate(-60.244807, -102.644695) " points="49.7021443 106.604801 69.0091273 95.5715018 70.7874688 98.6827965 51.4804861 109.717887"></polygon>
                <polygon id="Fill-135" fill="#2E7D32" transform="translate(47.195138, 89.706608) rotate(147.000000) translate(-47.195138, -89.706608) " points="36.6999728 93.680161 55.9012082 82.6289281 57.6903026 85.7330558 38.4890672 96.7842887"></polygon>
                <polygon id="Fill-136" fill="#0097A7" transform="translate(35.030465, 75.052983) rotate(147.000000) translate(-35.030465, -75.052983) " points="24.5209671 79.0686484 43.7437 67.936774 45.5399631 71.0373184 26.3172302 82.1691928"></polygon>
                <polygon id="Fill-137" fill="#0288D1" transform="translate(24.095759, 58.709843) rotate(147.000000) translate(-24.095759, -58.709843) " points="13.7869427 62.2873663 32.6889589 51.9851909 34.4045747 55.1323196 15.5025585 65.4344951"></polygon>
                <polygon id="Fill-138" fill="#1976D2" transform="translate(14.947462, 38.398282) rotate(147.000000) translate(-14.947462, -38.398282) " points="4.62250142 41.8646933 23.5872733 31.7668242 25.2724224 34.9318701 6.3076505 45.0297392"></polygon>
                <polygon id="Fill-139" fill="#6A1B9A" transform="translate(10.063673, 9.252117) rotate(147.000000) translate(-10.063673, -9.252117) " points="2.9569092 11.1500293 17.7187152 3.38575985 16.8880559 7.51812195 2.40863012 15.1184733"></polygon>
            </g>
            <path d="M256.421231,354.067191 L266.10603,348.0505 C288.220222,333.291536 299.003491,302.118541 295.634147,262.561759 C289.110869,185.989492 232.536406,100.202429 169.51755,71.3295918 C152.913264,63.7214757 137.311451,60.6709311 123.129711,62.2568688 C115.539711,63.1071194 99.5924518,70.2536043 92.232336,74.6577187 L77.4045927,82.8603527 L71.6907633,85.1105591 L85.6549544,74.4927858 C89.6742505,72.0875771 93.8010999,69.119374 100.782756,65.8024251 C107.354768,62.6800964 116.78729,59.1453943 120.71613,58.7053437 C135.541272,57.04243 153.80353,60.1874761 171.010043,68.0698721 C235.077421,97.4249388 292.584025,184.536525 299.204238,262.257573 C302.688465,303.154899 291.33005,335.526765 268.042049,351.06874 L247.002958,364.04466 L256.421231,354.067191 Z" id="Fill-106" fill="#414141" transform="translate(185.756611, 211.159139) rotate(140.000000) translate(-185.756611, -211.159139) "></path>
            <path d="M147.026269,50.9257636 C135.174884,50.9241648 124.447515,54.1075389 115.427266,60.4725435 C95.0511544,74.8510924 85.1695761,104.344419 88.3151331,141.391052 C94.520862,214.473443 148.339612,296.347026 208.28734,323.901592 C234.847604,336.112516 259.268149,335.924242 277.054627,323.378925 C297.430739,309.000376 307.312317,279.50876 304.166761,242.463837 C297.959327,169.379736 244.137166,87.5044417 184.189439,59.9498756 C171.102835,53.9342374 158.534951,50.9273161 147.026269,50.9257636 Z" id="Path" fill="#00FF00" transform="translate(196.240947, 191.925763) rotate(140.000000) translate(-196.240947, -191.925763) "></path>
            <path d="M208.984367,327.672476 L208.984748,327.672651 C222.393414,333.817102 235.282655,336.91444 247.065328,336.916024 C259.119037,336.917645 269.866533,333.682794 278.873667,327.346123 C283.83345,323.857901 288.212849,319.451085 291.955855,314.186161 C303.632841,297.761276 308.800729,273.437673 306.355062,244.745847 C299.911242,169.11438 243.672992,83.9245015 181.639835,55.5016406 C154.314814,42.9810386 129.618884,43.2671252 111.754345,55.8316819 C91.2467536,70.2546989 81.020191,100.251653 84.27295,138.43375 C90.7168296,214.065919 146.952004,299.251714 208.984367,327.672476 Z" id="BKG-&amp;-Border" stroke="#414141" stroke-width="12" transform="translate(195.314256, 191.587752) rotate(140.000000) translate(-195.314256, -191.587752) "></path>
        </g>
    </g>
</svg>