<?xml version="1.0" encoding="UTF-8"?>
<svg width="350px" height="350px" viewBox="0 0 350 350" version="1.1" xmlns="http://www.w3.org/2000/svg" xmlns:xlink="http://www.w3.org/1999/xlink">
    <!-- Generator: Sketch 53.2 (72643) - https://sketchapp.com -->
    <title>Artboard</title>
    <desc>Created with Sketch.</desc>
    <defs>
        <linearGradient x1="98.6771763%" y1="48.9895582%" x2="0.986607143%" y2="48.9895582%" id="linearGradient-1">
            <stop stop-color="#90E3F9" offset="0%"></stop>
            <stop stop-color="#0BA1CA" offset="100%"></stop>
        </linearGradient>
        <linearGradient x1="50%" y1="0%" x2="50%" y2="100%" id="linearGradient-2">
            <stop stop-color="#9F041B" offset="0%"></stop>
            <stop stop-color="#F5515F" offset="100%"></stop>
        </linearGradient>
        <linearGradient x1="50%" y1="0%" x2="50%" y2="100%" id="linearGradient-3">
            <stop stop-color="#429321" offset="0%"></stop>
            <stop stop-color="#B4EC51" offset="100%"></stop>
        </linearGradient>
    </defs>
    <g id="Artboard" stroke="none" stroke-width="1" fill="none" fill-rule="evenodd">
        <g id="Group-2" transform="translate(-45.000000, 25.000000)">
            <g id="rainbowcoin-single" transform="translate(299.801566, 157.348576) rotate(-15.000000) translate(-299.801566, -157.348576) translate(194.801566, 46.848576)">
                <g id="Group" transform="translate(0.599803, 0.713274)">
                    <g id="Colors" transform="translate(103.919723, 128.050139) rotate(-7.000000) translate(-103.919723, -128.050139) translate(21.419723, 74.050139)">
                        <polygon id="20" fill="#673AB7" transform="translate(157.041898, 85.947287) rotate(33.000000) translate(-157.041898, -85.947287) " points="154.287164 85.8542992 158.540771 77.2597199 159.796633 86.6539798 157.164887 94.6348539"></polygon>
                        <polygon id="19" fill="#2196F3" transform="translate(146.851872, 92.422667) rotate(33.000000) translate(-146.851872, -92.422667) " points="142.136653 91.9046139 149.385182 81.9098895 151.567091 92.3482044 144.587853 102.935445"></polygon>
                        <polygon id="18" fill="#00BCD4" transform="translate(134.500328, 96.357069) rotate(33.000000) translate(-134.500328, -96.357069) " points="129.778393 93.2431171 138.135489 86.2583856 139.222263 99.0233474 130.541763 106.455753"></polygon>
                        <polygon id="17" fill="#4CAF50" transform="translate(123.026268, 97.252251) rotate(33.000000) translate(-123.026268, -97.252251) " points="118.500735 93.6504199 127.551801 88.774281 127.475379 101.506111 119.099237 105.730221"></polygon>
                        <polygon id="16" fill="#8BC34A" transform="translate(112.753917, 97.275820) rotate(24.000000) translate(-112.753917, -97.275820) " points="108.208814 92.8255202 117.728195 89.5084042 116.785105 101.567947 107.779639 105.043236"></polygon>
                        <polygon id="15" fill="#CDDC39" transform="translate(102.820401, 96.244620) rotate(23.000000) translate(-102.820401, -96.244620) " points="98.544383 91.0379587 107.380852 89.7407629 107.258092 100.991931 98.25995 102.748477"></polygon>
                        <polygon id="14" fill="#FFEB3B" transform="translate(93.025074, 93.676673) rotate(23.000000) translate(-93.025074, -93.676673) " points="88.8188854 88.7246157 97.6039744 87.7101178 97.0090145 99.1547692 88.446174 99.6432281"></polygon>
                        <polygon id="13" fill="#FF9800" transform="translate(83.610022, 91.022896) rotate(32.000000) translate(-83.610022, -91.022896) " points="79.0488733 85.6403797 88.0642091 84.0288541 88.1711714 95.9500717 79.3958977 98.0169372"></polygon>
                        <polygon id="12" fill="#FF5722" transform="translate(74.385851, 87.139394) rotate(32.000000) translate(-74.385851, -87.139394) " points="69.0561104 82.1082766 79.6614294 80.8062216 79.7155908 92.6626669 70.1590753 93.4725661"></polygon>
                        <polygon id="11" fill="#F44336" transform="translate(65.781912, 84.204210) rotate(32.000000) translate(-65.781912, -84.204210) " points="60.8673859 78.3543667 69.5918759 77.6014896 70.7172643 89.2943782 60.8465598 90.8069313"></polygon>
                        <polygon id="10" fill="#FF5722" transform="translate(57.304213, 79.834798) rotate(32.000000) translate(-57.304213, -79.834798) " points="52.5059356 73.8536828 61.5308421 73.5962991 62.1024912 85.2633978 52.5459757 86.0732969"></polygon>
                        <polygon id="9" fill="#FF9800" transform="translate(49.277824, 74.498695) rotate(32.000000) translate(-49.277824, -74.498695) " points="44.649519 68.5089773 53.9119995 68.5046916 53.9061287 80.4884121 44.6436483 80.4926978"></polygon>
                        <polygon id="8" fill="#FFEB3B" transform="translate(41.395549, 69.737961) rotate(32.000000) translate(-41.395549, -69.737961) " points="36.6795885 63.6353106 45.4699849 63.6311313 46.1115094 75.84479 38.0759553 74.9188924"></polygon>
                        <polygon id="7" fill="#CDDC39" transform="translate(33.905702, 63.656002) rotate(32.000000) translate(-33.905702, -63.656002) " points="29.1902335 57.4016507 37.9806299 57.3974714 38.6211699 69.9145326 29.6255288 68.6984239"></polygon>
                        <polygon id="6" fill="#8BC34A" transform="translate(26.832748, 56.859853) rotate(37.000000) translate(-26.832748, -56.859853) " points="21.5831306 50.5681115 31.069099 51.8522948 32.082365 63.151594 22.5488345 62.0293413"></polygon>
                        <polygon id="5" fill="#4CAF50" transform="translate(20.201142, 49.452531) scale(-1, 1) translate(-20.201142, -49.452531) " points="25.715294 51.0023258 20.489472 57.5047491 14.6869901 47.6484619 21.1347938 41.4003121"></polygon>
                        <polygon id="4" fill="#00BCD4" transform="translate(13.595082, 40.666321) scale(-1, 1) translate(-13.595082, -40.666321) " points="19.1092342 42.7624093 13.15408 49.7586365 8.08093034 39.4085454 12.9423342 31.5740058"></polygon>
                        <polygon id="3" fill="#2196F3" transform="translate(8.162624, 31.055572) scale(-1, 1) translate(-8.162624, -31.055572) " points="13.628246 31.2875793 8.95758902 40.8066235 2.69700152 30.1091801 7.88049622 21.3045207"></polygon>
                        <polygon id="2" fill="#7B1FA2" transform="translate(4.271541, 17.947055) scale(-1, 1) translate(-4.271541, -17.947055) " points="8.32923641 14.7291642 5.96537911 28.610336 0.21384507 20.3448369 3.56250473 7.28377331"></polygon>
                        <polygon id="1" fill="#4A148C" transform="translate(3.629898, 5.031295) scale(-1, 1) translate(-3.629898, -5.031295) " points="5.99443992 6.85004935 5.65777304 10.0625904 1.2653563 4.5249274 1.66165529 -2.74291733e-12"></polygon>
                    </g>
                    <g id="Lines" transform="translate(100.445231, 128.768600) rotate(-7.000000) translate(-100.445231, -128.768600) translate(18.945231, 78.768600)">
                        <polygon id="Fill-121" fill="#1976D2" transform="translate(155.558252, 85.324767) rotate(147.000000) translate(-155.558252, -85.324767) " points="149.310018 87.5153437 159.020142 81.4291558 161.806485 82.7825494 150.262143 89.220378"></polygon>
                        <polygon id="Fill-122" fill="#0288D1" transform="translate(143.106333, 90.628270) rotate(147.000000) translate(-143.106333, -90.628270) " points="137.205286 92.7906723 147.344171 86.7783902 149.007379 88.1737189 138.189633 94.4781492"></polygon>
                        <polygon id="Fill-123" fill="#0097A7" transform="translate(131.479980, 92.979951) rotate(147.000000) translate(-131.479980, -92.979951) " points="125.642833 95.1351837 136.360121 89.1216345 137.317127 90.8247186 126.59984 96.8382678"></polygon>
                        <polygon id="Fill-124" fill="#2E7D32" transform="translate(120.617221, 93.121987) rotate(147.000000) translate(-120.617221, -93.121987) " points="114.699088 95.4416824 125.551008 89.1148144 126.535355 90.8022913 115.684412 97.1291598"></polygon>
                        <polygon id="Fill-125" fill="#558B2F" transform="translate(110.315381, 92.334000) rotate(147.000000) translate(-110.315381, -92.334000) " points="104.472928 94.6254203 115.168605 88.3580294 116.157835 90.0435561 105.462157 96.3099707"></polygon>
                        <polygon id="Fill-126" fill="#9E9D24" transform="translate(100.546033, 90.669923) rotate(147.000000) translate(-100.546033, -90.669923) " points="94.6932956 92.9008095 105.425165 86.7447314 106.398771 88.439037 95.6669021 94.5951152"></polygon>
                        <polygon id="Fill-127" fill="#FF7043" transform="translate(91.035134, 88.259241) rotate(147.000000) translate(-91.035134, -88.259241) " points="85.2283218 90.5335933 95.8507644 84.3013129 96.8419466 85.9858643 86.2195036 92.2171684"></polygon>
                        <polygon id="Fill-128" fill="#D84315" transform="translate(81.865799, 85.176042) rotate(147.000000) translate(-81.865799, -85.176042) " points="76.0390123 87.5499649 86.6828515 81.1302503 87.6925848 82.8021191 77.0487456 89.2218337"></polygon>
                        <polygon id="Fill-129" fill="#B71C1C" transform="translate(73.105885, 81.635813) rotate(147.000000) translate(-73.105885, -81.635813) " points="67.2057929 83.8979167 78.0323716 77.6803791 79.0059776 79.3737084 68.1793989 85.591246"></polygon>
                        <polygon id="Fill-130" fill="#B71C1C" transform="translate(64.475663, 77.610552) rotate(147.000000) translate(-64.475663, -77.610552) " points="58.6478251 79.8287591 69.3298951 73.69804 70.3035011 75.3913694 59.6214316 81.5230647"></polygon>
                        <polygon id="Fill-131" fill="#D84315" transform="translate(56.067502, 72.979827) rotate(147.000000) translate(-56.067502, -72.979827) " points="50.2919552 75.2776255 60.842102 69.0033304 61.8430479 70.6810526 51.2919249 76.9563235"></polygon>
                        <polygon id="Fill-132" fill="#FF7043" transform="translate(47.986171, 67.842079) rotate(147.000000) translate(-47.986171, -67.842079) " points="42.2223415 70.1340256 52.75003 63.8714349 53.7499997 65.5501329 43.2223112 71.8127236"></polygon>
                        <polygon id="Fill-133" fill="#9E9D24" transform="translate(40.276844, 62.305323) rotate(147.000000) translate(-40.276844, -62.305323) " points="34.5685972 64.4132683 45.0212483 58.4981948 45.9850902 60.1973771 35.5324391 66.1124505"></polygon>
                        <polygon id="Fill-134" fill="#558B2F" transform="translate(32.837545, 55.904478) rotate(147.000000) translate(-32.837545, -55.904478) " points="27.0931838 58.0597556 37.6122057 52.0529445 38.5819059 53.7482245 28.0628844 59.7560119"></polygon>
                        <polygon id="Fill-135" fill="#2E7D32" transform="translate(25.724582, 48.857870) rotate(147.000000) translate(-25.724582, -48.857870) " points="20.0061062 51.0204819 30.4674985 45.0038803 31.443057 46.695258 20.9816647 52.7118597"></polygon>
                        <polygon id="Fill-136" fill="#0097A7" transform="translate(19.094002, 40.876909) rotate(147.000000) translate(-19.094002, -40.876909) " points="13.3677243 43.06246 23.8408156 37.0019317 24.8202799 38.6913588 14.3471886 44.7518871"></polygon>
                        <polygon id="Fill-137" fill="#0288D1" transform="translate(13.133838, 31.975770) rotate(147.000000) translate(-13.133838, -31.975770) " points="7.51683494 33.9226744 17.8153165 28.3140765 18.7508419 30.0288655 8.45236026 35.6374634"></polygon>
                        <polygon id="Fill-138" fill="#1976D2" transform="translate(8.147390, 20.913267) rotate(147.000000) translate(-8.147390, -20.913267) " points="2.52156725 22.7996383 12.854287 17.3023521 13.7732132 19.0268958 3.44049349 24.524182"></polygon>
                        <polygon id="Fill-139" fill="#6A1B9A" transform="translate(5.485391, 5.039079) rotate(147.000000) translate(-5.485391, -5.039079) " points="1.61299061 6.07161199 9.65579539 1.84477398 9.20394207 4.09578862 1.31498595 8.23338451"></polygon>
                    </g>
                    <path d="M139.795753,193.874658 L145.071652,190.598699 C157.118383,182.562416 162.987531,165.581096 161.143272,144.029162 C157.572663,102.309881 126.727635,55.5596758 92.3831007,39.8159762 C83.3339603,35.6674443 74.8320186,34.0021681 67.1048398,34.8632274 C62.9692908,35.32486 54.2812665,39.2150306 50.271728,41.6129186 L42.1939411,46.0787335 L39.0809967,47.3034816 L46.6877324,41.5216749 C48.877307,40.2121218 51.1253679,38.5958623 54.9289161,36.7902012 C58.5092932,35.0904864 63.6482518,33.1667059 65.7889514,32.9277862 C73.8666984,32.0249245 83.8183142,33.7422472 93.1956613,38.0403384 C128.111629,54.0469858 159.46485,101.519011 163.08852,143.864188 C164.995661,166.146498 158.813374,183.780863 146.127209,192.243497 L134.665915,199.308573 L139.795753,193.874658 Z" id="Fill-106" fill="#414141" transform="translate(101.254688, 116.001413) rotate(140.000000) translate(-101.254688, -116.001413) "></path>
                    <path d="M80.1183826,28.7009573 C73.6606607,28.6975899 67.8160762,30.429688 62.9023582,33.8955536 C51.802612,41.7249459 46.4244341,57.7913432 48.1462255,77.9756578 C51.5430696,117.793526 80.8857068,162.411019 113.556532,177.435855 C128.031572,184.094174 141.338085,183.996742 151.027148,177.165581 C162.126894,169.336189 167.505072,153.270724 165.783281,133.087341 C162.385508,93.26854 133.041012,48.6501144 100.370187,33.6252788 C93.2381376,30.3450977 86.3893685,28.7042273 80.1183826,28.7009573 Z" id="Path" fill="#00FF00" transform="translate(106.964753, 105.530583) rotate(140.000000) translate(-106.964753, -105.530583) "></path>
                    <path d="M115.076663,177.007768 L115.077044,177.007943 C122.044137,180.202269 128.686016,181.800542 134.692935,181.803671 C140.710897,181.806807 146.015631,180.212236 150.450189,177.093741 C152.893374,175.376157 155.058334,173.197931 156.919642,170.579461 C162.867066,162.212686 165.54266,149.59932 164.255356,134.56679 C160.809617,94.3107876 130.725057,48.7598585 97.8401685,33.6844025 C83.7672725,27.2326402 71.3284081,27.3719091 62.4688213,33.600487 C52.2008688,40.8189607 46.9587922,56.208553 48.6636555,76.1284141 C52.1094267,116.38479 82.1922983,161.933472 115.076663,177.007768 Z" id="BKG-&amp;-Border" stroke="#414141" stroke-width="12" fill="url(#linearGradient-1)" transform="translate(106.459643, 105.346488) rotate(140.000000) translate(-106.459643, -105.346488) "></path>
                </g>
            </g>
            <g id="rainbowcoin-single" transform="translate(139.134195, 157.751784) rotate(-22.000000) translate(-139.134195, -157.751784) translate(34.134195, 47.251784)">
                <g id="Group" transform="translate(0.599803, 0.713274)">
                    <g id="Colors" transform="translate(103.919723, 128.050139) rotate(-7.000000) translate(-103.919723, -128.050139) translate(21.419723, 74.050139)">
                        <polygon id="20" fill="#673AB7" transform="translate(157.041898, 85.947287) rotate(33.000000) translate(-157.041898, -85.947287) " points="154.287164 85.8542992 158.540771 77.2597199 159.796633 86.6539798 157.164887 94.6348539"></polygon>
                        <polygon id="19" fill="#2196F3" transform="translate(146.851872, 92.422667) rotate(33.000000) translate(-146.851872, -92.422667) " points="142.136653 91.9046139 149.385182 81.9098895 151.567091 92.3482044 144.587853 102.935445"></polygon>
                        <polygon id="18" fill="#00BCD4" transform="translate(134.500328, 96.357069) rotate(33.000000) translate(-134.500328, -96.357069) " points="129.778393 93.2431171 138.135489 86.2583856 139.222263 99.0233474 130.541763 106.455753"></polygon>
                        <polygon id="17" fill="#4CAF50" transform="translate(123.026268, 97.252251) rotate(33.000000) translate(-123.026268, -97.252251) " points="118.500735 93.6504199 127.551801 88.774281 127.475379 101.506111 119.099237 105.730221"></polygon>
                        <polygon id="16" fill="#8BC34A" transform="translate(112.753917, 97.275820) rotate(24.000000) translate(-112.753917, -97.275820) " points="108.208814 92.8255202 117.728195 89.5084042 116.785105 101.567947 107.779639 105.043236"></polygon>
                        <polygon id="15" fill="#CDDC39" transform="translate(102.820401, 96.244620) rotate(23.000000) translate(-102.820401, -96.244620) " points="98.544383 91.0379587 107.380852 89.7407629 107.258092 100.991931 98.25995 102.748477"></polygon>
                        <polygon id="14" fill="#FFEB3B" transform="translate(93.025074, 93.676673) rotate(23.000000) translate(-93.025074, -93.676673) " points="88.8188854 88.7246157 97.6039744 87.7101178 97.0090145 99.1547692 88.446174 99.6432281"></polygon>
                        <polygon id="13" fill="#FF9800" transform="translate(83.610022, 91.022896) rotate(32.000000) translate(-83.610022, -91.022896) " points="79.0488733 85.6403797 88.0642091 84.0288541 88.1711714 95.9500717 79.3958977 98.0169372"></polygon>
                        <polygon id="12" fill="#FF5722" transform="translate(74.385851, 87.139394) rotate(32.000000) translate(-74.385851, -87.139394) " points="69.0561104 82.1082766 79.6614294 80.8062216 79.7155908 92.6626669 70.1590753 93.4725661"></polygon>
                        <polygon id="11" fill="#F44336" transform="translate(65.781912, 84.204210) rotate(32.000000) translate(-65.781912, -84.204210) " points="60.8673859 78.3543667 69.5918759 77.6014896 70.7172643 89.2943782 60.8465598 90.8069313"></polygon>
                        <polygon id="10" fill="#FF5722" transform="translate(57.304213, 79.834798) rotate(32.000000) translate(-57.304213, -79.834798) " points="52.5059356 73.8536828 61.5308421 73.5962991 62.1024912 85.2633978 52.5459757 86.0732969"></polygon>
                        <polygon id="9" fill="#FF9800" transform="translate(49.277824, 74.498695) rotate(32.000000) translate(-49.277824, -74.498695) " points="44.649519 68.5089773 53.9119995 68.5046916 53.9061287 80.4884121 44.6436483 80.4926978"></polygon>
                        <polygon id="8" fill="#FFEB3B" transform="translate(41.395549, 69.737961) rotate(32.000000) translate(-41.395549, -69.737961) " points="36.6795885 63.6353106 45.4699849 63.6311313 46.1115094 75.84479 38.0759553 74.9188924"></polygon>
                        <polygon id="7" fill="#CDDC39" transform="translate(33.905702, 63.656002) rotate(32.000000) translate(-33.905702, -63.656002) " points="29.1902335 57.4016507 37.9806299 57.3974714 38.6211699 69.9145326 29.6255288 68.6984239"></polygon>
                        <polygon id="6" fill="#8BC34A" transform="translate(26.832748, 56.859853) rotate(37.000000) translate(-26.832748, -56.859853) " points="21.5831306 50.5681115 31.069099 51.8522948 32.082365 63.151594 22.5488345 62.0293413"></polygon>
                        <polygon id="5" fill="#4CAF50" transform="translate(20.201142, 49.452531) scale(-1, 1) translate(-20.201142, -49.452531) " points="25.715294 51.0023258 20.489472 57.5047491 14.6869901 47.6484619 21.1347938 41.4003121"></polygon>
                        <polygon id="4" fill="#00BCD4" transform="translate(13.595082, 40.666321) scale(-1, 1) translate(-13.595082, -40.666321) " points="19.1092342 42.7624093 13.15408 49.7586365 8.08093034 39.4085454 12.9423342 31.5740058"></polygon>
                        <polygon id="3" fill="#2196F3" transform="translate(8.162624, 31.055572) scale(-1, 1) translate(-8.162624, -31.055572) " points="13.628246 31.2875793 8.95758902 40.8066235 2.69700152 30.1091801 7.88049622 21.3045207"></polygon>
                        <polygon id="2" fill="#7B1FA2" transform="translate(4.271541, 17.947055) scale(-1, 1) translate(-4.271541, -17.947055) " points="8.32923641 14.7291642 5.96537911 28.610336 0.21384507 20.3448369 3.56250473 7.28377331"></polygon>
                        <polygon id="1" fill="#4A148C" transform="translate(3.629898, 5.031295) scale(-1, 1) translate(-3.629898, -5.031295) " points="5.99443992 6.85004935 5.65777304 10.0625904 1.2653563 4.5249274 1.66165529 -2.74291733e-12"></polygon>
                    </g>
                    <g id="Lines" transform="translate(100.445231, 128.768600) rotate(-7.000000) translate(-100.445231, -128.768600) translate(18.945231, 78.768600)">
                        <polygon id="Fill-121" fill="#1976D2" transform="translate(155.558252, 85.324767) rotate(147.000000) translate(-155.558252, -85.324767) " points="149.310018 87.5153437 159.020142 81.4291558 161.806485 82.7825494 150.262143 89.220378"></polygon>
                        <polygon id="Fill-122" fill="#0288D1" transform="translate(143.106333, 90.628270) rotate(147.000000) translate(-143.106333, -90.628270) " points="137.205286 92.7906723 147.344171 86.7783902 149.007379 88.1737189 138.189633 94.4781492"></polygon>
                        <polygon id="Fill-123" fill="#0097A7" transform="translate(131.479980, 92.979951) rotate(147.000000) translate(-131.479980, -92.979951) " points="125.642833 95.1351837 136.360121 89.1216345 137.317127 90.8247186 126.59984 96.8382678"></polygon>
                        <polygon id="Fill-124" fill="#2E7D32" transform="translate(120.617221, 93.121987) rotate(147.000000) translate(-120.617221, -93.121987) " points="114.699088 95.4416824 125.551008 89.1148144 126.535355 90.8022913 115.684412 97.1291598"></polygon>
                        <polygon id="Fill-125" fill="#558B2F" transform="translate(110.315381, 92.334000) rotate(147.000000) translate(-110.315381, -92.334000) " points="104.472928 94.6254203 115.168605 88.3580294 116.157835 90.0435561 105.462157 96.3099707"></polygon>
                        <polygon id="Fill-126" fill="#9E9D24" transform="translate(100.546033, 90.669923) rotate(147.000000) translate(-100.546033, -90.669923) " points="94.6932956 92.9008095 105.425165 86.7447314 106.398771 88.439037 95.6669021 94.5951152"></polygon>
                        <polygon id="Fill-127" fill="#FF7043" transform="translate(91.035134, 88.259241) rotate(147.000000) translate(-91.035134, -88.259241) " points="85.2283218 90.5335933 95.8507644 84.3013129 96.8419466 85.9858643 86.2195036 92.2171684"></polygon>
                        <polygon id="Fill-128" fill="#D84315" transform="translate(81.865799, 85.176042) rotate(147.000000) translate(-81.865799, -85.176042) " points="76.0390123 87.5499649 86.6828515 81.1302503 87.6925848 82.8021191 77.0487456 89.2218337"></polygon>
                        <polygon id="Fill-129" fill="#B71C1C" transform="translate(73.105885, 81.635813) rotate(147.000000) translate(-73.105885, -81.635813) " points="67.2057929 83.8979167 78.0323716 77.6803791 79.0059776 79.3737084 68.1793989 85.591246"></polygon>
                        <polygon id="Fill-130" fill="#B71C1C" transform="translate(64.475663, 77.610552) rotate(147.000000) translate(-64.475663, -77.610552) " points="58.6478251 79.8287591 69.3298951 73.69804 70.3035011 75.3913694 59.6214316 81.5230647"></polygon>
                        <polygon id="Fill-131" fill="#D84315" transform="translate(56.067502, 72.979827) rotate(147.000000) translate(-56.067502, -72.979827) " points="50.2919552 75.2776255 60.842102 69.0033304 61.8430479 70.6810526 51.2919249 76.9563235"></polygon>
                        <polygon id="Fill-132" fill="#FF7043" transform="translate(47.986171, 67.842079) rotate(147.000000) translate(-47.986171, -67.842079) " points="42.2223415 70.1340256 52.75003 63.8714349 53.7499997 65.5501329 43.2223112 71.8127236"></polygon>
                        <polygon id="Fill-133" fill="#9E9D24" transform="translate(40.276844, 62.305323) rotate(147.000000) translate(-40.276844, -62.305323) " points="34.5685972 64.4132683 45.0212483 58.4981948 45.9850902 60.1973771 35.5324391 66.1124505"></polygon>
                        <polygon id="Fill-134" fill="#558B2F" transform="translate(32.837545, 55.904478) rotate(147.000000) translate(-32.837545, -55.904478) " points="27.0931838 58.0597556 37.6122057 52.0529445 38.5819059 53.7482245 28.0628844 59.7560119"></polygon>
                        <polygon id="Fill-135" fill="#2E7D32" transform="translate(25.724582, 48.857870) rotate(147.000000) translate(-25.724582, -48.857870) " points="20.0061062 51.0204819 30.4674985 45.0038803 31.443057 46.695258 20.9816647 52.7118597"></polygon>
                        <polygon id="Fill-136" fill="#0097A7" transform="translate(19.094002, 40.876909) rotate(147.000000) translate(-19.094002, -40.876909) " points="13.3677243 43.06246 23.8408156 37.0019317 24.8202799 38.6913588 14.3471886 44.7518871"></polygon>
                        <polygon id="Fill-137" fill="#0288D1" transform="translate(13.133838, 31.975770) rotate(147.000000) translate(-13.133838, -31.975770) " points="7.51683494 33.9226744 17.8153165 28.3140765 18.7508419 30.0288655 8.45236026 35.6374634"></polygon>
                        <polygon id="Fill-138" fill="#1976D2" transform="translate(8.147390, 20.913267) rotate(147.000000) translate(-8.147390, -20.913267) " points="2.52156725 22.7996383 12.854287 17.3023521 13.7732132 19.0268958 3.44049349 24.524182"></polygon>
                        <polygon id="Fill-139" fill="#6A1B9A" transform="translate(5.485391, 5.039079) rotate(147.000000) translate(-5.485391, -5.039079) " points="1.61299061 6.07161199 9.65579539 1.84477398 9.20394207 4.09578862 1.31498595 8.23338451"></polygon>
                    </g>
                    <path d="M139.795753,193.874658 L145.071652,190.598699 C157.118383,182.562416 162.987531,165.581096 161.143272,144.029162 C157.572663,102.309881 126.727635,55.5596758 92.3831007,39.8159762 C83.3339603,35.6674443 74.8320186,34.0021681 67.1048398,34.8632274 C62.9692908,35.32486 54.2812665,39.2150306 50.271728,41.6129186 L42.1939411,46.0787335 L39.0809967,47.3034816 L46.6877324,41.5216749 C48.877307,40.2121218 51.1253679,38.5958623 54.9289161,36.7902012 C58.5092932,35.0904864 63.6482518,33.1667059 65.7889514,32.9277862 C73.8666984,32.0249245 83.8183142,33.7422472 93.1956613,38.0403384 C128.111629,54.0469858 159.46485,101.519011 163.08852,143.864188 C164.995661,166.146498 158.813374,183.780863 146.127209,192.243497 L134.665915,199.308573 L139.795753,193.874658 Z" id="Fill-106" fill="#414141" transform="translate(101.254688, 116.001413) rotate(140.000000) translate(-101.254688, -116.001413) "></path>
                    <path d="M80.1183826,28.7009573 C73.6606607,28.6975899 67.8160762,30.429688 62.9023582,33.8955536 C51.802612,41.7249459 46.4244341,57.7913432 48.1462255,77.9756578 C51.5430696,117.793526 80.8857068,162.411019 113.556532,177.435855 C128.031572,184.094174 141.338085,183.996742 151.027148,177.165581 C162.126894,169.336189 167.505072,153.270724 165.783281,133.087341 C162.385508,93.26854 133.041012,48.6501144 100.370187,33.6252788 C93.2381376,30.3450977 86.3893685,28.7042273 80.1183826,28.7009573 Z" id="Path" fill="#00FF00" transform="translate(106.964753, 105.530583) rotate(140.000000) translate(-106.964753, -105.530583) "></path>
                    <path d="M115.076663,177.007768 L115.077044,177.007943 C122.044137,180.202269 128.686016,181.800542 134.692935,181.803671 C140.710897,181.806807 146.015631,180.212236 150.450189,177.093741 C152.893374,175.376157 155.058334,173.197931 156.919642,170.579461 C162.867066,162.212686 165.54266,149.59932 164.255356,134.56679 C160.809617,94.3107876 130.725057,48.7598585 97.8401685,33.6844025 C83.7672725,27.2326402 71.3284081,27.3719091 62.4688213,33.600487 C52.2008688,40.8189607 46.9587922,56.208553 48.6636555,76.1284141 C52.1094267,116.38479 82.1922983,161.933472 115.076663,177.007768 Z" id="BKG-&amp;-Border" stroke="#414141" stroke-width="12" fill="url(#linearGradient-2)" transform="translate(106.459643, 105.346488) rotate(140.000000) translate(-106.459643, -105.346488) "></path>
                </g>
            </g>
            <g id="rainbowcoin-single" transform="translate(217.955089, 136.689703) rotate(-17.000000) translate(-217.955089, -136.689703) translate(112.455089, 26.189703)">
                <g id="Group" transform="translate(0.599803, 0.713274)">
                    <g id="Colors" transform="translate(104.487607, 127.655025) rotate(-7.000000) translate(-104.487607, -127.655025) translate(21.987607, 73.655025)">
                        <polygon id="20" fill="#673AB7" transform="translate(157.041898, 85.947287) rotate(33.000000) translate(-157.041898, -85.947287) " points="154.287164 85.8542992 158.540771 77.2597199 159.796633 86.6539798 157.164887 94.6348539"></polygon>
                        <polygon id="19" fill="#2196F3" transform="translate(146.851872, 92.422667) rotate(33.000000) translate(-146.851872, -92.422667) " points="142.136653 91.9046139 149.385182 81.9098895 151.567091 92.3482044 144.587853 102.935445"></polygon>
                        <polygon id="18" fill="#00BCD4" transform="translate(134.500328, 96.357069) rotate(33.000000) translate(-134.500328, -96.357069) " points="129.778393 93.2431171 138.135489 86.2583856 139.222263 99.0233474 130.541763 106.455753"></polygon>
                        <polygon id="17" fill="#4CAF50" transform="translate(123.026268, 97.252251) rotate(33.000000) translate(-123.026268, -97.252251) " points="118.500735 93.6504199 127.551801 88.774281 127.475379 101.506111 119.099237 105.730221"></polygon>
                        <polygon id="16" fill="#8BC34A" transform="translate(112.753917, 97.275820) rotate(24.000000) translate(-112.753917, -97.275820) " points="108.208814 92.8255202 117.728195 89.5084042 116.785105 101.567947 107.779639 105.043236"></polygon>
                        <polygon id="15" fill="#CDDC39" transform="translate(102.820401, 96.244620) rotate(23.000000) translate(-102.820401, -96.244620) " points="98.544383 91.0379587 107.380852 89.7407629 107.258092 100.991931 98.25995 102.748477"></polygon>
                        <polygon id="14" fill="#FFEB3B" transform="translate(93.025074, 93.676673) rotate(23.000000) translate(-93.025074, -93.676673) " points="88.8188854 88.7246157 97.6039744 87.7101178 97.0090145 99.1547692 88.446174 99.6432281"></polygon>
                        <polygon id="13" fill="#FF9800" transform="translate(83.610022, 91.022896) rotate(32.000000) translate(-83.610022, -91.022896) " points="79.0488733 85.6403797 88.0642091 84.0288541 88.1711714 95.9500717 79.3958977 98.0169372"></polygon>
                        <polygon id="12" fill="#FF5722" transform="translate(74.385851, 87.139394) rotate(32.000000) translate(-74.385851, -87.139394) " points="69.0561104 82.1082766 79.6614294 80.8062216 79.7155908 92.6626669 70.1590753 93.4725661"></polygon>
                        <polygon id="11" fill="#F44336" transform="translate(65.781912, 84.204210) rotate(32.000000) translate(-65.781912, -84.204210) " points="60.8673859 78.3543667 69.5918759 77.6014896 70.7172643 89.2943782 60.8465598 90.8069313"></polygon>
                        <polygon id="10" fill="#FF5722" transform="translate(57.304213, 79.834798) rotate(32.000000) translate(-57.304213, -79.834798) " points="52.5059356 73.8536828 61.5308421 73.5962991 62.1024912 85.2633978 52.5459757 86.0732969"></polygon>
                        <polygon id="9" fill="#FF9800" transform="translate(49.277824, 74.498695) rotate(32.000000) translate(-49.277824, -74.498695) " points="44.649519 68.5089773 53.9119995 68.5046916 53.9061287 80.4884121 44.6436483 80.4926978"></polygon>
                        <polygon id="8" fill="#FFEB3B" transform="translate(41.395549, 69.737961) rotate(32.000000) translate(-41.395549, -69.737961) " points="36.6795885 63.6353106 45.4699849 63.6311313 46.1115094 75.84479 38.0759553 74.9188924"></polygon>
                        <polygon id="7" fill="#CDDC39" transform="translate(33.905702, 63.656002) rotate(32.000000) translate(-33.905702, -63.656002) " points="29.1902335 57.4016507 37.9806299 57.3974714 38.6211699 69.9145326 29.6255288 68.6984239"></polygon>
                        <polygon id="6" fill="#8BC34A" transform="translate(26.832748, 56.859853) rotate(37.000000) translate(-26.832748, -56.859853) " points="21.5831306 50.5681115 31.069099 51.8522948 32.082365 63.151594 22.5488345 62.0293413"></polygon>
                        <polygon id="5" fill="#4CAF50" transform="translate(20.201142, 49.452531) scale(-1, 1) translate(-20.201142, -49.452531) " points="25.715294 51.0023258 20.489472 57.5047491 14.6869901 47.6484619 21.1347938 41.4003121"></polygon>
                        <polygon id="4" fill="#00BCD4" transform="translate(13.595082, 40.666321) scale(-1, 1) translate(-13.595082, -40.666321) " points="19.1092342 42.7624093 13.15408 49.7586365 8.08093034 39.4085454 12.9423342 31.5740058"></polygon>
                        <polygon id="3" fill="#2196F3" transform="translate(8.162624, 31.055572) scale(-1, 1) translate(-8.162624, -31.055572) " points="13.628246 31.2875793 8.95758902 40.8066235 2.69700152 30.1091801 7.88049622 21.3045207"></polygon>
                        <polygon id="2" fill="#7B1FA2" transform="translate(4.271541, 17.947055) scale(-1, 1) translate(-4.271541, -17.947055) " points="8.32923641 14.7291642 5.96537911 28.610336 0.21384507 20.3448369 3.56250473 7.28377331"></polygon>
                        <polygon id="1" fill="#4A148C" transform="translate(3.629898, 5.031295) scale(-1, 1) translate(-3.629898, -5.031295) " points="5.99443992 6.85004935 5.65777304 10.0625904 1.2653563 4.5249274 1.66165529 -2.74291733e-12"></polygon>
                    </g>
                    <g id="Lines" transform="translate(101.013116, 128.373486) rotate(-7.000000) translate(-101.013116, -128.373486) translate(19.513116, 78.373486)">
                        <polygon id="Fill-121" fill="#1976D2" transform="translate(155.558252, 85.324767) rotate(147.000000) translate(-155.558252, -85.324767) " points="149.310018 87.5153437 159.020142 81.4291558 161.806485 82.7825494 150.262143 89.220378"></polygon>
                        <polygon id="Fill-122" fill="#0288D1" transform="translate(143.106333, 90.628270) rotate(147.000000) translate(-143.106333, -90.628270) " points="137.205286 92.7906723 147.344171 86.7783902 149.007379 88.1737189 138.189633 94.4781492"></polygon>
                        <polygon id="Fill-123" fill="#0097A7" transform="translate(131.479980, 92.979951) rotate(147.000000) translate(-131.479980, -92.979951) " points="125.642833 95.1351837 136.360121 89.1216345 137.317127 90.8247186 126.59984 96.8382678"></polygon>
                        <polygon id="Fill-124" fill="#2E7D32" transform="translate(120.617221, 93.121987) rotate(147.000000) translate(-120.617221, -93.121987) " points="114.699088 95.4416824 125.551008 89.1148144 126.535355 90.8022913 115.684412 97.1291598"></polygon>
                        <polygon id="Fill-125" fill="#558B2F" transform="translate(110.315381, 92.334000) rotate(147.000000) translate(-110.315381, -92.334000) " points="104.472928 94.6254203 115.168605 88.3580294 116.157835 90.0435561 105.462157 96.3099707"></polygon>
                        <polygon id="Fill-126" fill="#9E9D24" transform="translate(100.546033, 90.669923) rotate(147.000000) translate(-100.546033, -90.669923) " points="94.6932956 92.9008095 105.425165 86.7447314 106.398771 88.439037 95.6669021 94.5951152"></polygon>
                        <polygon id="Fill-127" fill="#FF7043" transform="translate(91.035134, 88.259241) rotate(147.000000) translate(-91.035134, -88.259241) " points="85.2283218 90.5335933 95.8507644 84.3013129 96.8419466 85.9858643 86.2195036 92.2171684"></polygon>
                        <polygon id="Fill-128" fill="#D84315" transform="translate(81.865799, 85.176042) rotate(147.000000) translate(-81.865799, -85.176042) " points="76.0390123 87.5499649 86.6828515 81.1302503 87.6925848 82.8021191 77.0487456 89.2218337"></polygon>
                        <polygon id="Fill-129" fill="#B71C1C" transform="translate(73.105885, 81.635813) rotate(147.000000) translate(-73.105885, -81.635813) " points="67.2057929 83.8979167 78.0323716 77.6803791 79.0059776 79.3737084 68.1793989 85.591246"></polygon>
                        <polygon id="Fill-130" fill="#B71C1C" transform="translate(64.475663, 77.610552) rotate(147.000000) translate(-64.475663, -77.610552) " points="58.6478251 79.8287591 69.3298951 73.69804 70.3035011 75.3913694 59.6214316 81.5230647"></polygon>
                        <polygon id="Fill-131" fill="#D84315" transform="translate(56.067502, 72.979827) rotate(147.000000) translate(-56.067502, -72.979827) " points="50.2919552 75.2776255 60.842102 69.0033304 61.8430479 70.6810526 51.2919249 76.9563235"></polygon>
                        <polygon id="Fill-132" fill="#FF7043" transform="translate(47.986171, 67.842079) rotate(147.000000) translate(-47.986171, -67.842079) " points="42.2223415 70.1340256 52.75003 63.8714349 53.7499997 65.5501329 43.2223112 71.8127236"></polygon>
                        <polygon id="Fill-133" fill="#9E9D24" transform="translate(40.276844, 62.305323) rotate(147.000000) translate(-40.276844, -62.305323) " points="34.5685972 64.4132683 45.0212483 58.4981948 45.9850902 60.1973771 35.5324391 66.1124505"></polygon>
                        <polygon id="Fill-134" fill="#558B2F" transform="translate(32.837545, 55.904478) rotate(147.000000) translate(-32.837545, -55.904478) " points="27.0931838 58.0597556 37.6122057 52.0529445 38.5819059 53.7482245 28.0628844 59.7560119"></polygon>
                        <polygon id="Fill-135" fill="#2E7D32" transform="translate(25.724582, 48.857870) rotate(147.000000) translate(-25.724582, -48.857870) " points="20.0061062 51.0204819 30.4674985 45.0038803 31.443057 46.695258 20.9816647 52.7118597"></polygon>
                        <polygon id="Fill-136" fill="#0097A7" transform="translate(19.094002, 40.876909) rotate(147.000000) translate(-19.094002, -40.876909) " points="13.3677243 43.06246 23.8408156 37.0019317 24.8202799 38.6913588 14.3471886 44.7518871"></polygon>
                        <polygon id="Fill-137" fill="#0288D1" transform="translate(13.133838, 31.975770) rotate(147.000000) translate(-13.133838, -31.975770) " points="7.51683494 33.9226744 17.8153165 28.3140765 18.7508419 30.0288655 8.45236026 35.6374634"></polygon>
                        <polygon id="Fill-138" fill="#1976D2" transform="translate(8.147390, 20.913267) rotate(147.000000) translate(-8.147390, -20.913267) " points="2.52156725 22.7996383 12.854287 17.3023521 13.7732132 19.0268958 3.44049349 24.524182"></polygon>
                        <polygon id="Fill-139" fill="#6A1B9A" transform="translate(5.485391, 5.039079) rotate(147.000000) translate(-5.485391, -5.039079) " points="1.61299061 6.07161199 9.65579539 1.84477398 9.20394207 4.09578862 1.31498595 8.23338451"></polygon>
                    </g>
                    <path d="M140.363637,193.479543 L145.639536,190.203585 C157.686268,182.167302 163.555416,165.185982 161.711156,143.634047 C158.140547,101.914766 127.29552,55.1645615 92.950985,39.4208619 C83.9018446,35.27233 75.3999029,33.6070538 67.6727241,34.4681131 C63.5371751,34.9297457 54.8491508,38.8199163 50.8396123,41.2178043 L42.7618254,45.6836192 L39.648881,46.9083673 L47.2556167,41.1265606 C49.4451913,39.8170075 51.6932522,38.200748 55.4968004,36.3950869 C59.0771775,34.6953721 64.2161361,32.7715916 66.3568357,32.5326719 C74.4345827,31.6298102 84.3861985,33.3471329 93.7635456,37.6452241 C128.679513,53.6518715 160.032735,101.123896 163.656405,143.469074 C165.563546,165.751384 159.381258,183.385749 146.695093,191.848383 L135.2338,198.913459 L140.363637,193.479543 Z" id="Fill-106" fill="#414141" transform="translate(101.822573, 115.606299) rotate(140.000000) translate(-101.822573, -115.606299) "></path>
                    <path d="M80.6862669,28.305843 C74.228545,28.3024756 68.3839605,30.0345737 63.4702425,33.5004393 C52.3704963,41.3298316 46.9923184,57.3962289 48.7141098,77.5805435 C52.1109539,117.398412 81.4535911,162.015905 114.124416,177.04074 C128.599456,183.699059 141.90597,183.601628 151.595032,176.770467 C162.694778,168.941075 168.072956,152.875609 166.351166,132.692227 C162.953392,92.8734257 133.608896,48.2550001 100.938071,33.2301645 C93.8060219,29.9499834 86.9572528,28.3091129 80.6862669,28.305843 Z" id="Path" fill="#00FF00" transform="translate(107.532638, 105.135468) rotate(140.000000) translate(-107.532638, -105.135468) "></path>
                    <path d="M115.644547,176.612654 L115.644929,176.612829 C122.612021,179.807155 129.253901,181.405427 135.260819,181.408557 C141.278781,181.411692 146.583516,179.817122 151.018074,176.698626 C153.461259,174.981043 155.626218,172.802817 157.487527,170.184347 C163.434951,161.817572 166.110545,149.204206 164.82324,134.171676 C161.377501,93.9156733 131.292942,48.3647442 98.4080528,33.2892882 C84.3351568,26.8375259 71.8962924,26.9767947 63.0367056,33.2053727 C52.7687531,40.4238464 47.5266765,55.8134387 49.2315398,75.7332998 C52.677311,115.989676 82.7601826,161.538357 115.644547,176.612654 Z" id="BKG-&amp;-Border" stroke="#414141" stroke-width="12" fill="url(#linearGradient-3)" transform="translate(107.027527, 104.951373) rotate(140.000000) translate(-107.027527, -104.951373) "></path>
                </g>
            </g>
        </g>
    </g>
</svg>